<svg width="39" height="39" viewBox="0 0 39 39" fill="none" xmlns="http://www.w3.org/2000/svg">
<circle cx="19.5" cy="19.5" r="19" fill="#FFCB5B" stroke="white"/>
<g clip-path="url(#clip0_95_1152)">
<path d="M16.8232 28.08C17.2125 28.08 17.5203 27.9121 17.7376 27.5851L26.2936 14.4333C26.4566 14.177 26.52 13.9826 26.52 13.7793C26.52 13.2932 26.194 12.975 25.696 12.975C25.3339 12.975 25.1347 13.0899 24.9174 13.4257L16.7869 26.0737L12.5678 20.6822C12.3415 20.3728 12.1151 20.2491 11.7892 20.2491C11.2731 20.2491 10.92 20.5938 10.92 21.0799C10.92 21.2832 11.0105 21.513 11.1825 21.7251L15.8816 27.5674C16.1532 27.9121 16.4338 28.08 16.8232 28.08Z" fill="white"/>
</g>
<defs>
<clipPath id="clip0_95_1152">
<rect width="15.6" height="15.6" fill="white" transform="translate(10.92 12.48)"/>
</clipPath>
</defs>
</svg>
