<svg width="250" height="209" viewBox="0 0 250 209" fill="none" xmlns="http://www.w3.org/2000/svg">
<g clip-path="url(#clip0_67_1005)">
<path d="M170.791 -1.9757e-05L0 101.35L5.13642 110.031L175.927 8.68065L170.791 -1.9757e-05Z" fill="#F2F2F2"/>
<path d="M207.912 8.49701L37.1211 109.847L42.2575 118.528L213.049 17.1777L207.912 8.49701Z" fill="#F2F2F2"/>
<path d="M240.791 17.7906L69.9995 119.141L75.1359 127.821L245.927 26.4713L240.791 17.7906Z" fill="#F2F2F2"/>
<path d="M111.245 118.807C140.777 118.807 164.718 94.8316 164.718 65.2569C164.718 35.6822 140.777 11.7071 111.245 11.7071C81.713 11.7071 57.7725 35.6822 57.7725 65.2569C57.7725 94.8316 81.713 118.807 111.245 118.807Z" fill="white"/>
<path d="M57.3748 65.2569C57.3748 35.5099 81.5409 11.3089 111.245 11.3089C140.949 11.3089 165.116 35.5099 165.116 65.2569C165.116 95.0039 140.949 119.205 111.245 119.205C81.5409 119.205 57.3748 95.0039 57.3748 65.2569ZM58.1702 65.2569C58.1702 94.5646 81.9795 118.408 111.245 118.408C140.511 118.408 164.32 94.5646 164.32 65.2569C164.32 35.9492 140.511 12.1055 111.245 12.1055C81.9795 12.1055 58.1702 35.9491 58.1702 65.2569Z" fill="#3F3D56"/>
<path d="M101.713 65.4897C101.713 63.6017 102.272 61.7561 103.32 60.1863C104.367 58.6165 105.856 57.393 107.597 56.6705C109.339 55.948 111.256 55.759 113.105 56.1273C114.954 56.4956 116.652 57.4048 117.985 58.7398C119.319 60.0748 120.226 61.7757 120.594 63.6274C120.962 65.4791 120.773 67.3985 120.052 69.1428C119.33 70.887 118.109 72.3779 116.541 73.4268C114.973 74.4757 113.13 75.0355 111.245 75.0355C108.717 75.0355 106.293 74.0298 104.505 72.2396C102.717 70.4494 101.713 68.0214 101.713 65.4897ZM111.245 56.4095C108.841 56.4122 106.537 57.3698 104.837 59.0721C103.137 60.7743 102.181 63.0824 102.178 65.4897C102.178 67.2856 102.71 69.0412 103.706 70.5344C104.703 72.0276 106.119 73.1915 107.775 73.8787C109.432 74.566 111.255 74.7458 113.014 74.3954C114.773 74.0451 116.389 73.1803 117.657 71.9104C118.925 70.6405 119.788 69.0226 120.138 67.2612C120.488 65.4998 120.308 63.6741 119.622 62.0149C118.936 60.3557 117.774 58.9376 116.283 57.9398C114.792 56.9421 113.039 56.4095 111.245 56.4095Z" fill="#3F3D56"/>
<path d="M93.1111 65.4897C93.1111 61.8979 94.1746 58.3868 96.1673 55.4004C98.1599 52.4139 100.992 50.0863 104.306 48.7118C107.619 47.3372 111.265 46.9776 114.783 47.6783C118.301 48.3791 121.532 50.1087 124.068 52.6484C126.604 55.1882 128.331 58.4241 129.031 61.9468C129.731 65.4696 129.372 69.121 127.999 72.4394C126.627 75.7578 124.302 78.594 121.32 80.5895C118.338 82.585 114.832 83.6501 111.245 83.6501C108.864 83.6501 106.506 83.1804 104.306 82.2677C102.105 81.3551 100.106 80.0174 98.4225 78.331C96.7385 76.6447 95.4028 74.6427 94.4915 72.4394C93.5801 70.2361 93.1111 67.8746 93.1111 65.4897ZM111.245 47.795C107.751 47.795 104.334 48.8328 101.429 50.7771C98.5231 52.7214 96.2584 55.485 94.921 58.7183C93.5837 61.9515 93.2338 65.5094 93.9156 68.9418C94.5973 72.3742 96.2802 75.5271 98.7513 78.0018C101.222 80.4764 104.371 82.1617 107.798 82.8444C111.226 83.5272 114.778 83.1768 118.007 81.8375C121.236 80.4982 123.995 78.2303 125.937 75.3204C127.878 72.4105 128.915 68.9894 128.915 65.4897C128.909 60.7984 127.046 56.3008 123.733 52.9835C120.421 49.6663 115.93 47.8003 111.245 47.795Z" fill="#CCCCCC"/>
<path d="M75.9067 65.4897C75.9067 58.4903 77.9793 51.6482 81.8623 45.8284C85.7454 40.0086 91.2645 35.4727 97.7218 32.7942C104.179 30.1156 111.284 29.4148 118.139 30.7803C124.994 32.1458 131.291 35.5163 136.233 40.4656C141.175 45.4149 144.541 51.7207 145.905 58.5856C147.268 65.4505 146.568 72.5661 143.894 79.0327C141.219 85.4992 136.69 91.0263 130.878 94.9149C125.067 98.8036 118.235 100.879 111.245 100.879C101.876 100.869 92.8938 97.1366 86.2688 90.5021C79.6439 83.8676 75.9173 74.8723 75.9067 65.4897ZM111.245 30.566C104.348 30.566 97.6055 32.6142 91.8705 36.4517C86.1356 40.2891 81.6658 45.7435 79.0263 52.125C76.3868 58.5065 75.6962 65.5285 77.0418 72.303C78.3874 79.0776 81.7088 85.3004 86.5859 90.1846C91.4631 95.0687 97.677 98.3949 104.442 99.7424C111.207 101.09 118.218 100.398 124.591 97.7551C130.963 95.1118 136.41 90.6355 140.241 84.8923C144.073 79.1491 146.119 72.397 146.119 65.4897C146.108 56.2306 142.431 47.3537 135.893 40.8065C129.355 34.2593 120.491 30.5764 111.245 30.566Z" fill="#CCCCCC"/>
<path d="M111.245 69.6806C113.685 69.6806 115.662 67.7 115.662 65.2569C115.662 62.8138 113.685 60.8332 111.245 60.8332C108.806 60.8332 106.828 62.8138 106.828 65.2569C106.828 67.7 108.806 69.6806 111.245 69.6806Z" fill="#EC603C"/>
<path d="M99.8533 82.486C102.293 82.486 104.271 80.5054 104.271 78.0623C104.271 75.6192 102.293 73.6386 99.8533 73.6386C97.4137 73.6386 95.436 75.6192 95.436 78.0623C95.436 80.5054 97.4137 82.486 99.8533 82.486Z" fill="#EC603C"/>
<path d="M144.297 80.6233C146.737 80.6233 148.714 78.6428 148.714 76.1997C148.714 73.7565 146.737 71.776 144.297 71.776C141.858 71.776 139.88 73.7565 139.88 76.1997C139.88 78.6428 141.858 80.6233 144.297 80.6233Z" fill="#EC603C"/>
<path d="M111.245 67.3523C112.401 67.3523 113.338 66.4142 113.338 65.2569C113.338 64.0996 112.401 63.1615 111.245 63.1615C110.09 63.1615 109.153 64.0996 109.153 65.2569C109.153 66.4142 110.09 67.3523 111.245 67.3523Z" fill="#2F2E41"/>
<path d="M144.297 78.2951C145.453 78.2951 146.389 77.3569 146.389 76.1997C146.389 75.0424 145.453 74.1042 144.297 74.1042C143.141 74.1042 142.205 75.0424 142.205 76.1997C142.205 77.3569 143.141 78.2951 144.297 78.2951Z" fill="#2F2E41"/>
<path d="M99.8531 80.3905C101.009 80.3905 101.946 79.4524 101.946 78.2951C101.946 77.1378 101.009 76.1997 99.8531 76.1997C98.6975 76.1997 97.7607 77.1378 97.7607 78.2951C97.7607 79.4524 98.6975 80.3905 99.8531 80.3905Z" fill="#2F2E41"/>
<path d="M13.5995 43.837C14.7551 43.837 15.6919 42.8988 15.6919 41.7416C15.6919 40.5843 14.7551 39.6461 13.5995 39.6461C12.4439 39.6461 11.5071 40.5843 11.5071 41.7416C11.5071 42.8988 12.4439 43.837 13.5995 43.837Z" fill="#EC603C"/>
<path d="M111.129 41.8581H19.2952V41.3925H111.594V65.3731H111.129V41.8581Z" fill="#2F2E41"/>
<path d="M7.55469 41.7415C7.55469 40.5443 7.9092 39.3739 8.57341 38.3784C9.23761 37.3829 10.1817 36.6071 11.2862 36.1489C12.3907 35.6907 13.6061 35.5708 14.7787 35.8044C15.9513 36.038 17.0283 36.6145 17.8737 37.4611C18.7191 38.3077 19.2948 39.3863 19.528 40.5606C19.7613 41.7348 19.6416 42.952 19.1841 44.0581C18.7265 45.1642 17.9518 46.1096 16.9577 46.7748C15.9637 47.44 14.795 47.795 13.5994 47.795C12.8056 47.795 12.0196 47.6384 11.2862 47.3342C10.5528 47.03 9.88646 46.5841 9.32515 46.022C8.76385 45.4599 8.31859 44.7925 8.01481 44.0581C7.71104 43.3237 7.55469 42.5365 7.55469 41.7415ZM13.5994 36.1537C12.4959 36.1537 11.4171 36.4815 10.4995 37.0955C9.5819 37.7095 8.86673 38.5821 8.44441 39.6032C8.02209 40.6242 7.91158 41.7477 8.12688 42.8317C8.34218 43.9156 8.8736 44.9113 9.65394 45.6927C10.4343 46.4742 11.4285 47.0064 12.5109 47.222C13.5932 47.4376 14.7151 47.3269 15.7347 46.904C16.7543 46.4811 17.6257 45.7649 18.2388 44.846C18.8519 43.9271 19.1792 42.8467 19.1792 41.7415C19.1775 40.2601 18.5891 38.8398 17.543 37.7923C16.497 36.7447 15.0788 36.1554 13.5994 36.1537Z" fill="#2F2E41"/>
<path d="M27.549 104.139C28.7046 104.139 29.6414 103.201 29.6414 102.043C29.6414 100.886 28.7046 99.9478 27.549 99.9478C26.3933 99.9478 25.4565 100.886 25.4565 102.043C25.4565 103.201 26.3933 104.139 27.549 104.139Z" fill="#EC603C"/>
<path d="M21.5042 102.043C21.5042 100.846 21.8587 99.6756 22.5229 98.6801C23.1871 97.6847 24.1311 96.9088 25.2357 96.4506C26.3402 95.9924 27.5556 95.8726 28.7282 96.1061C29.9007 96.3397 30.9778 96.9162 31.8232 97.7628C32.6685 98.6094 33.2442 99.688 33.4775 100.862C33.7107 102.037 33.591 103.254 33.1335 104.36C32.676 105.466 31.9012 106.411 30.9072 107.077C29.9131 107.742 28.7444 108.097 27.5489 108.097C25.9457 108.097 24.4082 107.459 23.2746 106.324C22.141 105.188 21.5042 103.649 21.5042 102.043ZM27.5489 96.4555C26.4453 96.4555 25.3665 96.7832 24.4489 97.3972C23.5314 98.0112 22.8162 98.8839 22.3939 99.9049C21.9715 100.926 21.861 102.049 22.0763 103.133C22.2916 104.217 22.823 105.213 23.6034 105.994C24.3837 106.776 25.3779 107.308 26.4603 107.524C27.5427 107.739 28.6646 107.629 29.6842 107.206C30.7037 106.783 31.5752 106.067 32.1883 105.148C32.8014 104.229 33.1286 103.148 33.1286 102.043C33.1269 100.562 32.5385 99.1415 31.4925 98.094C30.4465 97.0464 29.0282 96.4572 27.5489 96.4555Z" fill="#2F2E41"/>
<path d="M209.162 53.6157C210.317 53.6157 211.254 52.6775 211.254 51.5202C211.254 50.363 210.317 49.4248 209.162 49.4248C208.006 49.4248 207.069 50.363 207.069 51.5202C207.069 52.6775 208.006 53.6157 209.162 53.6157Z" fill="#EC603C"/>
<path d="M203.117 51.5202C203.117 50.323 203.472 49.1526 204.136 48.1571C204.8 47.1616 205.744 46.3857 206.849 45.9276C207.953 45.4694 209.169 45.3495 210.341 45.5831C211.514 45.8167 212.591 46.3932 213.436 47.2398C214.282 48.0864 214.857 49.165 215.091 50.3392C215.324 51.5135 215.204 52.7307 214.747 53.8368C214.289 54.9429 213.514 55.8883 212.52 56.5535C211.526 57.2186 210.357 57.5737 209.162 57.5737C208.368 57.5737 207.582 57.4171 206.849 57.1129C206.115 56.8087 205.449 56.3628 204.888 55.8007C204.326 55.2385 203.881 54.5712 203.577 53.8368C203.274 53.1023 203.117 52.3152 203.117 51.5202ZM209.162 45.9324C207.683 45.9341 206.264 46.5234 205.218 47.5709C204.172 48.6185 203.584 50.0388 203.582 51.5202C203.582 52.6254 203.909 53.7057 204.523 54.6246C205.136 55.5435 206.007 56.2598 207.027 56.6827C208.046 57.1056 209.168 57.2163 210.251 57.0007C211.333 56.785 212.327 56.2529 213.107 55.4714C213.888 54.6899 214.419 53.6943 214.634 52.6103C214.85 51.5264 214.739 50.4029 214.317 49.3819C213.895 48.3608 213.179 47.4881 212.262 46.8741C211.344 46.2601 210.266 45.9324 209.162 45.9324Z" fill="#2F2E41"/>
<path d="M144.064 52.2223L203.346 51.2875L203.353 51.7528L144.529 52.6807V76.1997H144.064V52.2223Z" fill="#2F2E41"/>
<path d="M33.3613 101.811H99.6207V78.2952H100.086V102.276H33.3613V101.811Z" fill="#2F2E41"/>
<path d="M26.3864 52.6843H0.8125V54.3141H26.3864V52.6843Z" fill="#CCCCCC"/>
<path d="M26.3864 57.3409H0.8125V58.9706H26.3864V57.3409Z" fill="#CCCCCC"/>
<path d="M26.3864 61.9973H0.8125V63.6271H26.3864V61.9973Z" fill="#CCCCCC"/>
<path d="M40.3359 112.986H14.762V114.616H40.3359V112.986Z" fill="#CCCCCC"/>
<path d="M40.3359 117.643H14.762V119.272H40.3359V117.643Z" fill="#CCCCCC"/>
<path d="M40.3359 122.299H14.762V123.929H40.3359V122.299Z" fill="#CCCCCC"/>
<path d="M221.949 62.6958H196.375V64.3256H221.949V62.6958Z" fill="#CCCCCC"/>
<path d="M221.949 67.3523H196.375V68.9821H221.949V67.3523Z" fill="#CCCCCC"/>
<path d="M221.949 72.0088H196.375V73.6386H221.949V72.0088Z" fill="#CCCCCC"/>
<path d="M234.123 201.554L230.486 202.855L223.742 189.426L229.11 187.505L234.123 201.554Z" fill="#FFB8B8"/>
<path d="M224.584 208.949L224.531 208.801C224.1 207.588 224.166 206.254 224.716 205.091C225.266 203.928 226.254 203.03 227.464 202.596L234.627 200.032L236.311 204.752L224.584 208.949Z" fill="#2F2E41"/>
<path d="M210.473 205.156L206.611 205.156L204.774 190.237L210.474 190.237L210.473 205.156Z" fill="#FFB8B8"/>
<path d="M211.458 208.905L199.005 208.905V208.747C199.005 208.11 199.13 207.478 199.374 206.89C199.617 206.301 199.974 205.765 200.424 205.315C200.875 204.864 201.409 204.506 201.997 204.262C202.585 204.019 203.215 203.893 203.852 203.893L211.458 203.893L211.458 208.905Z" fill="#2F2E41"/>
<path d="M219.275 109.844L217.596 106.52C217.596 106.52 211.338 108.09 210.769 111.722L219.275 109.844Z" fill="#EC603C"/>
<path d="M226.206 147.849L221.638 173.376L233.767 194.857L226.521 197.696L214.235 176.874L212.66 171.195L211.714 200.851L205.18 200.653L202.183 172.961L206.989 147.218L226.206 147.849Z" fill="#2F2E41"/>
<path d="M204.389 152.454C204.247 151.822 203.84 132.524 203.84 132.524C203.84 132.524 210.559 110.437 210.62 110.255L210.644 110.185L215.745 108.269C215.816 108.237 217.516 107.479 218.906 108.11C219.263 108.284 219.577 108.534 219.828 108.842C220.078 109.15 220.258 109.509 220.356 109.894C220.934 110.326 225.103 115.003 225.103 121.346L225.261 136.316L228.756 152.545L228.602 152.578C228.506 152.598 224.245 153.884 217.535 153.884C213.806 153.884 204.389 152.454 204.389 152.454Z" fill="#3F3D56"/>
<path d="M212.378 105.474C216.186 105.474 219.272 102.383 219.272 98.5697C219.272 94.7568 216.186 91.6659 212.378 91.6659C208.571 91.6659 205.485 94.7568 205.485 98.5697C205.485 102.383 208.571 105.474 212.378 105.474Z" fill="#FFB8B8"/>
<path opacity="0.2" d="M222.2 128.985L210.139 145.837L208.358 137.967L222.2 128.985Z" fill="black"/>
<path d="M200.794 146.2C201.226 146.183 201.649 146.071 202.034 145.873C202.418 145.674 202.754 145.393 203.018 145.05C203.283 144.708 203.469 144.311 203.563 143.888C203.658 143.466 203.659 143.027 203.566 142.604L212.528 137.099L207.579 134.781L199.828 140.364C199.129 140.567 198.528 141.02 198.14 141.637C197.752 142.254 197.603 142.993 197.722 143.712C197.842 144.431 198.22 145.082 198.786 145.541C199.352 145.999 200.067 146.234 200.794 146.2Z" fill="#FFB8B8"/>
<path d="M206.989 134.914L203.92 137.068L206.523 141.697L210.139 138.7L206.989 134.914Z" fill="#EC603C"/>
<path d="M205.382 135.05L212.602 126.669L209.836 115.11C209.55 113.916 209.708 112.658 210.28 111.571C210.853 110.485 211.8 109.644 212.946 109.206C214.092 108.768 215.358 108.763 216.508 109.191C217.658 109.62 218.612 110.452 219.194 111.534L219.257 111.651L221.805 128.816L208.998 141.963L205.382 135.05Z" fill="#3F3D56"/>
<path d="M218.251 104.564L212.529 104.769C212.18 104.782 211.233 101.012 211.109 100.23C211.011 99.7214 210.732 99.2654 210.323 98.9477C209.913 98.6299 209.403 98.4722 208.886 98.504C208.458 98.5445 207.378 97.7431 206.263 96.7942C204.147 94.9927 204.257 91.6092 206.582 90.0869C206.645 90.0453 206.708 90.0073 206.769 89.9729C208.235 89.151 209.95 88.875 211.631 88.854C213.154 88.8349 214.72 89.0269 216.062 89.7489C218.468 91.0433 219.748 93.8719 219.861 96.6045C219.973 99.3372 219.099 102.009 218.106 104.557" fill="#2F2E41"/>
<path d="M249.685 209H180.062C179.979 209 179.899 208.967 179.84 208.908C179.781 208.848 179.747 208.768 179.747 208.685C179.747 208.601 179.781 208.521 179.84 208.461C179.899 208.402 179.979 208.369 180.062 208.369H249.685C249.769 208.369 249.849 208.402 249.908 208.461C249.967 208.521 250 208.601 250 208.685C250 208.768 249.967 208.848 249.908 208.908C249.849 208.967 249.769 209 249.685 209Z" fill="#3F3D56"/>
</g>
<defs>
<clipPath id="clip0_67_1005">
<rect width="250" height="209" fill="white"/>
</clipPath>
</defs>
</svg>
