<svg width="273" height="219" viewBox="0 0 273 219" fill="none" xmlns="http://www.w3.org/2000/svg">
<g clip-path="url(#clip0_67_769)">
<path d="M225.381 195.833C225.402 195.798 225.425 195.764 225.45 195.731C225.51 195.588 225.587 195.451 225.678 195.325L233.218 184.728L239.431 176.001H250.028L249.279 177.051L247.945 178.927L243.813 184.731L234.956 197.173L243.165 213.737C243.501 214.411 242.928 215.38 241.894 215.898L237.935 217.879C237.542 218.081 237.109 218.19 236.668 218.198C236.11 218.198 235.646 217.99 235.451 217.596L225.246 197.005C225.166 196.814 225.136 196.606 225.159 196.401C225.183 196.196 225.259 196 225.381 195.833Z" fill="#FFB6B6"/>
<path d="M239.641 195.199L228.966 191.214C228.482 191.033 228.089 190.666 227.874 190.195C227.659 189.723 227.639 189.185 227.818 188.698L230.95 180.233C231.13 179.747 231.495 179.352 231.965 179.136C232.434 178.92 232.97 178.9 233.454 179.08L244.13 183.064C244.614 183.245 245.006 183.612 245.221 184.084C245.436 184.555 245.457 185.094 245.277 185.58L242.146 194.046C242.057 194.287 241.921 194.508 241.747 194.696C241.573 194.884 241.364 195.036 241.131 195.143C240.899 195.251 240.647 195.31 240.392 195.32C240.136 195.329 239.881 195.288 239.641 195.199Z" fill="#2F2E41"/>
<path d="M230.564 190.493C230.491 190.493 230.42 190.48 230.352 190.454C230.204 190.397 230.084 190.284 230.018 190.138C229.953 189.993 229.948 189.827 230.004 189.678L233.923 179.258C233.979 179.109 234.092 178.988 234.237 178.922C234.382 178.857 234.547 178.851 234.696 178.908C234.845 178.964 234.965 179.078 235.03 179.223C235.096 179.369 235.101 179.535 235.045 179.684L231.125 190.104C231.082 190.218 231.005 190.316 230.905 190.386C230.804 190.455 230.685 190.493 230.564 190.493Z" fill="white"/>
<path d="M247.789 216.648V179.014C247.788 178.979 247.791 178.944 247.796 178.909C247.814 178.473 247.959 178.051 248.212 177.696C248.466 177.341 248.817 177.068 249.223 176.911C249.482 176.808 249.758 176.756 250.037 176.756H254.461C255.057 176.757 255.628 176.995 256.049 177.418C256.471 177.841 256.708 178.415 256.708 179.014V216.648C256.708 217.246 256.471 217.82 256.049 218.244C255.628 218.667 255.057 218.905 254.461 218.906H250.037C249.441 218.905 248.87 218.667 248.448 218.244C248.027 217.82 247.79 217.246 247.789 216.648Z" fill="#FFB6B6"/>
<path d="M245.389 193.16V184.129C245.389 183.61 245.595 183.113 245.96 182.746C246.325 182.379 246.82 182.173 247.337 182.172H258.725C259.242 182.173 259.737 182.379 260.102 182.746C260.467 183.113 260.673 183.61 260.673 184.129V193.16C260.673 193.679 260.467 194.176 260.102 194.543C259.737 194.91 259.242 195.116 258.725 195.117H247.337C246.82 195.116 246.325 194.91 245.96 194.543C245.595 194.176 245.389 193.679 245.389 193.16Z" fill="#2F2E41"/>
<path d="M254.103 194.164C253.944 194.164 253.791 194.1 253.679 193.987C253.567 193.874 253.503 193.721 253.503 193.562V182.423C253.503 182.263 253.566 182.11 253.679 181.997C253.791 181.884 253.944 181.821 254.103 181.821C254.262 181.821 254.414 181.884 254.526 181.997C254.639 182.11 254.702 182.263 254.702 182.423V193.562C254.702 193.721 254.639 193.874 254.526 193.987C254.414 194.1 254.261 194.164 254.103 194.164Z" fill="white"/>
<path d="M233.623 150.389L200.854 133.419C200.326 133.144 199.927 132.669 199.746 132.099C199.564 131.529 199.615 130.91 199.887 130.378L201.913 126.428C202.188 125.896 202.66 125.496 203.228 125.314C203.795 125.132 204.411 125.184 204.941 125.457L237.711 142.427C237.875 142.512 238.028 142.618 238.166 142.742C238.542 143.074 238.797 143.522 238.89 144.017C238.982 144.511 238.908 145.022 238.677 145.468L236.651 149.418C236.516 149.682 236.33 149.917 236.105 150.108C235.879 150.3 235.618 150.445 235.336 150.535C235.113 150.604 234.881 150.64 234.648 150.64C234.291 150.64 233.94 150.554 233.623 150.389Z" fill="#FFB6B6"/>
<path d="M234.26 151.365L218.328 145.046C217.796 144.778 217.392 144.308 217.204 143.741C217.016 143.173 217.06 142.554 217.325 142.019L220.958 134.497C221.227 133.964 221.694 133.558 222.259 133.368C222.543 133.274 222.843 133.238 223.141 133.261C223.439 133.285 223.73 133.368 223.996 133.506L238.383 142.266C238.439 142.294 238.49 142.33 238.536 142.373C238.902 142.705 239.085 143.501 239.232 144.139L239.255 144.239C239.295 144.41 239.33 144.558 239.365 144.662L239.377 144.701C239.389 144.743 239.402 144.787 239.411 144.827C239.54 145.349 239.478 145.899 239.238 146.379L237.254 150.35C237.065 150.724 236.776 151.038 236.421 151.258C236.065 151.479 235.656 151.596 235.238 151.598C234.898 151.599 234.563 151.519 234.26 151.365Z" fill="#2F2E41"/>
<path d="M246.012 130.753C254.87 130.753 262.051 123.539 262.051 114.641C262.051 105.743 254.87 98.5292 246.012 98.5292C237.153 98.5292 229.972 105.743 229.972 114.641C229.972 123.539 237.153 130.753 246.012 130.753Z" fill="#FFB6B6"/>
<path d="M246.948 123.322L246.965 122.72C245.849 122.689 244.866 122.618 244.128 122.076C243.918 121.914 243.746 121.708 243.623 121.473C243.5 121.237 243.429 120.978 243.414 120.713C243.401 120.551 243.425 120.388 243.485 120.237C243.545 120.086 243.639 119.95 243.76 119.842C244.25 119.426 245.039 119.56 245.614 119.825L246.11 120.054L245.159 113.072L244.565 113.154L245.374 119.092C244.593 118.862 243.869 118.961 243.373 119.382C243.182 119.549 243.033 119.758 242.936 119.992C242.839 120.227 242.798 120.481 242.815 120.734C242.833 121.091 242.927 121.439 243.093 121.755C243.259 122.071 243.491 122.346 243.774 122.562C244.723 123.259 245.957 123.294 246.948 123.322Z" fill="#2F2E41"/>
<path d="M241.628 113.666H238.4V114.268H241.628V113.666Z" fill="#2F2E41"/>
<path d="M251.818 113.666H248.59V114.268H251.818V113.666Z" fill="#2F2E41"/>
<path d="M231.39 184.874C230.331 184.812 229.505 183.063 229.505 180.869V152.67C229.504 151.296 229.676 149.928 230.016 148.598L230.016 148.598C230.14 148.119 230.286 147.644 230.451 147.185C231.458 144.361 233.224 141.873 235.554 139.996C235.817 139.781 236.092 139.572 236.371 139.376C237.728 138.414 239.226 137.669 240.81 137.168C240.766 136.969 240.744 136.767 240.743 136.564C240.744 135.805 241.044 135.078 241.578 134.542C242.112 134.006 242.836 133.705 243.59 133.704H247.786C248.541 133.705 249.265 134.006 249.799 134.542C250.332 135.078 250.633 135.805 250.633 136.564C250.633 136.766 250.611 136.968 250.567 137.166C253.846 138.209 256.71 140.274 258.742 143.062C260.775 145.849 261.871 149.214 261.872 152.67V180.869C261.872 183.119 261.016 184.881 259.924 184.881H231.453C231.432 184.882 231.41 184.879 231.39 184.874Z" fill="#2F2E41"/>
<path d="M249.924 187.448C249.738 187.12 249.637 186.749 249.63 186.371L248.999 149.345C248.994 149.048 249.047 148.754 249.155 148.478C249.263 148.202 249.424 147.95 249.63 147.737L249.63 147.736C249.835 147.523 250.08 147.352 250.351 147.234C250.621 147.116 250.913 147.052 251.208 147.047L255.631 146.972C256.188 146.962 256.73 147.161 257.149 147.529C257.569 147.898 257.838 148.41 257.902 148.966C257.912 149.04 257.917 149.114 257.917 149.189L258.55 186.218C258.558 186.817 258.33 187.394 257.916 187.824C257.502 188.254 256.935 188.502 256.339 188.514L251.917 188.59C251.513 188.596 251.116 188.493 250.765 188.292C250.415 188.091 250.125 187.8 249.924 187.448Z" fill="#FFB6B6"/>
<path d="M248.065 162.021C247.898 161.725 247.799 161.395 247.776 161.055L247.965 143.901C247.919 143.304 248.111 142.713 248.498 142.258C248.885 141.803 249.436 141.521 250.03 141.473L254.44 141.126C254.977 141.085 255.51 141.238 255.945 141.556C255.991 141.591 256.036 141.633 256.08 141.663C256.19 141.755 256.305 141.841 256.424 141.922L256.52 141.99C257.153 142.441 257.872 142.951 257.907 143.449L260.56 160.186C260.599 160.664 260.484 161.142 260.231 161.548C260.172 161.648 260.104 161.743 260.028 161.831C259.962 161.909 259.89 161.982 259.812 162.049C259.446 162.38 258.982 162.579 258.491 162.616L250.192 163.154C249.767 163.187 249.342 163.098 248.965 162.897C248.589 162.697 248.276 162.393 248.065 162.021Z" fill="#2F2E41"/>
<path d="M232.524 180.918C232.365 180.918 232.213 180.854 232.101 180.741C231.988 180.628 231.925 180.475 231.925 180.316V151.114C231.925 150.955 231.988 150.801 232.1 150.689C232.213 150.576 232.365 150.512 232.524 150.512C232.683 150.512 232.836 150.576 232.948 150.689C233.06 150.801 233.124 150.955 233.124 151.114V180.316C233.123 180.475 233.06 180.628 232.948 180.741C232.835 180.854 232.683 180.918 232.524 180.918Z" fill="white"/>
<path d="M260.559 110.814L232.694 100.574C232.547 100.52 232.411 100.437 232.295 100.33C232.179 100.223 232.085 100.094 232.019 99.9504C231.953 99.807 231.915 99.6519 231.909 99.4939C231.902 99.3359 231.926 99.1781 231.98 99.0296L232.075 98.5819C234.251 92.6067 241.464 88.8462 247.412 91.0321L255.987 94.183C261.935 96.3689 264.52 103.444 262.344 109.42L262.096 110.096C261.987 110.396 261.764 110.64 261.475 110.775C261.187 110.909 260.857 110.923 260.559 110.814Z" fill="#2F2E41"/>
<path d="M262.059 111.382C223.222 112.821 219.829 107.919 231.662 100.211L234.172 95.5715L262.943 106.108L262.059 111.382Z" fill="#2F2E41"/>
<path d="M254.444 93.4482C254.659 92.7317 253.74 91.821 252.393 91.4142C251.045 91.0074 249.779 91.2584 249.565 91.9749C249.351 92.6914 250.269 93.6021 251.616 94.0089C252.964 94.4157 254.23 94.1647 254.444 93.4482Z" fill="#2F2E41"/>
<path d="M84.9903 0C57.1435 0 34.492 22.7533 34.492 50.7252C34.484 57.8854 35.9934 64.9652 38.9197 71.4941C46.8338 89.1384 64.5041 101.45 84.9903 101.45C98.381 101.443 111.221 96.0963 120.69 86.5851C130.158 77.0739 135.481 64.1761 135.489 50.7252C135.489 22.7533 112.833 0 84.9903 0ZM126.771 71.1167C122.957 78.989 117.018 85.6265 109.631 90.2723C102.244 94.9181 93.7059 97.3853 84.9903 97.3924C65.304 97.3924 48.4376 85.0276 41.687 67.6228C39.5948 62.2374 38.5247 56.5062 38.5318 50.7252C38.5318 24.9933 59.3735 4.05802 84.9903 4.05802C110.607 4.05802 131.449 24.9933 131.449 50.7252C131.458 57.7918 129.857 64.7668 126.771 71.1167Z" fill="#3F3D56"/>
<path d="M84.9903 101.601C75.425 101.593 66.0569 98.8679 57.9678 93.7399C49.8787 88.6119 43.3984 81.2903 39.2752 72.6205C39.1107 72.2748 39.0392 71.8918 39.068 71.5097C39.0968 71.1276 39.2248 70.7597 39.4394 70.4429L39.4664 70.403C39.6806 70.0913 39.9727 69.8417 40.3133 69.6792C40.6539 69.5167 41.0311 69.4471 41.407 69.4773C41.7828 69.5075 42.1442 69.6365 42.4548 69.8513C42.7653 70.0661 43.0142 70.3592 43.1763 70.7012C50.8377 86.824 67.2506 97.2419 84.9902 97.2419C93.097 97.2212 101.058 95.0717 108.082 91.0068C115.107 86.9419 120.951 81.1027 125.036 74.0687C125.225 73.7383 125.499 73.4643 125.829 73.2746C126.158 73.0849 126.532 72.9862 126.911 72.9885C127.287 72.9875 127.656 73.0872 127.981 73.2773C128.306 73.4674 128.574 73.741 128.758 74.07L128.782 74.1116C128.969 74.4435 129.066 74.8188 129.064 75.2001C129.062 75.5815 128.961 75.9557 128.77 76.2856C124.302 83.9715 117.911 90.3509 110.232 94.7913C102.552 99.2318 93.8511 101.579 84.9903 101.601Z" fill="#EC603C"/>
<path d="M73.6082 55.3648C74.9808 55.3558 76.3139 55.8257 77.38 56.6942C78.4461 57.5627 79.179 58.7759 79.4537 60.1268C79.7284 61.4777 79.5278 62.8825 78.8862 64.1013C78.2446 65.3202 77.2017 66.2776 75.9355 66.81C74.6694 67.3425 73.2585 67.417 71.9438 67.0209C70.629 66.6247 69.4919 65.7825 68.7266 64.6379C67.9612 63.4934 67.6151 62.1175 67.7472 60.7451C67.8793 59.3727 68.4816 58.089 69.4511 57.113C69.9945 56.5599 70.6417 56.1206 71.3553 55.8205C72.0689 55.5204 72.8346 55.3655 73.6082 55.3648ZM73.6082 52.8285C71.9433 52.8276 70.3155 53.3226 68.9307 54.251C67.5459 55.1794 66.4663 56.4994 65.8283 58.0442C65.1903 59.5889 65.0227 61.289 65.3467 62.9294C65.6706 64.5698 66.4715 66.0769 67.6481 67.2601C68.8248 68.4433 70.3243 69.2494 71.957 69.5766C73.5897 69.9037 75.2824 69.7372 76.8209 69.098C78.3594 68.4588 79.6747 67.3758 80.6004 65.9857C81.5261 64.5957 82.0207 62.9611 82.0216 61.2887C82.0228 59.0461 81.137 56.8949 79.5592 55.3083C77.9814 53.7217 75.8408 52.8297 73.6082 52.8285ZM91.1474 40.736C91.9088 40.7398 92.6406 40.4397 93.1818 39.9016C93.7229 39.3635 94.0291 38.6315 94.033 37.8666C94.033 37.8569 94.033 37.8471 94.033 37.8374C94.0365 37.4627 93.9666 37.091 93.8271 36.7434C93.6877 36.3959 93.4814 36.0793 93.2202 35.8119C92.9589 35.5444 92.6478 35.3312 92.3045 35.1845C91.9613 35.0378 91.5926 34.9605 91.2196 34.9569C91.2015 34.9567 91.1835 34.9567 91.1654 34.9569C90.4025 34.9497 89.668 35.2472 89.1234 35.784C88.5789 36.3207 88.2689 37.0528 88.2617 37.8191C88.2545 38.5855 88.5507 39.3233 89.0851 39.8703C89.6194 40.4173 90.3482 40.7286 91.1112 40.7359C91.1232 40.736 91.1353 40.736 91.1474 40.736ZM97.1801 55.3648C98.5527 55.3558 99.8858 55.8257 100.952 56.6942C102.018 57.5626 102.751 58.7759 103.026 60.1268C103.3 61.4777 103.1 62.8825 102.458 64.1013C101.816 65.3202 100.774 66.2776 99.5074 66.81C98.2413 67.3425 96.8304 67.417 95.5157 67.0209C94.2009 66.6247 93.0638 65.7825 92.2985 64.6379C91.5331 63.4934 91.187 62.1175 91.3191 60.7451C91.4512 59.3727 92.0535 58.089 93.023 57.113C93.5664 56.5599 94.2136 56.1206 94.9272 55.8205C95.6408 55.5204 96.4065 55.3655 97.1801 55.3648ZM97.1801 52.8285C95.5161 52.8285 93.8895 53.3242 92.5059 54.2528C91.1223 55.1814 90.0439 56.5013 89.4072 58.0456C88.7704 59.5898 88.6038 61.2891 88.9284 62.9284C89.253 64.5678 90.0543 66.0737 91.2309 67.2556C92.4076 68.4375 93.9067 69.2424 95.5387 69.5685C97.1708 69.8946 98.8624 69.7272 100.4 69.0876C101.937 68.4479 103.251 67.3647 104.176 65.9749C105.1 64.5851 105.593 62.9512 105.593 61.2797C105.593 60.1699 105.376 59.0709 104.953 58.0456C104.53 57.0202 103.911 56.0886 103.129 55.3038C102.348 54.519 101.421 53.8965 100.4 53.4718C99.379 53.0471 98.285 52.8285 97.1801 52.8285Z" fill="#3F3D56"/>
<path d="M95.4938 46.5512H91.1654L88.5052 41.1073C88.2906 40.7256 87.9907 40.3991 87.6291 40.1535C87.2676 39.9079 86.8542 39.7499 86.4216 39.6919C85.989 39.634 85.5488 39.6777 85.1358 39.8195C84.7229 39.9614 84.3483 40.1976 84.0416 40.5095L77.5759 46.7686C77.0467 47.3113 76.7463 48.0381 76.7373 48.7977C76.7373 50.3738 77.8735 50.9354 78.4055 51.2524C82.5085 53.6256 83.9513 53.8883 83.9513 55.0749V61.0442C83.9513 61.4285 84.1034 61.7972 84.3739 62.069C84.6445 62.3408 85.0115 62.4934 85.3941 62.4934C85.7768 62.4934 86.1438 62.3408 86.4144 62.069C86.685 61.7972 86.837 61.4285 86.837 61.0442V52.8919C86.837 51.6962 84.0956 50.718 82.4815 49.4498L86.8911 44.7849C88.5774 47.3665 89.3529 49.4498 90.3177 49.4498H95.4938C95.8765 49.4505 96.2437 49.2984 96.5147 49.027C96.7857 48.7556 96.9383 48.3873 96.9389 48.0029C96.9396 47.6185 96.7881 47.2496 96.518 46.9774C96.2479 46.7052 95.8811 46.5519 95.4985 46.5513L95.4938 46.5512Z" fill="#3F3D56"/>
<path d="M44.3723 128.804C43.1294 128.804 42.1004 132.439 41.9009 137.205H17.99C17.7905 132.439 16.7615 128.804 15.5185 128.804C14.1329 128.804 13.0095 133.318 13.0095 138.885C13.0095 144.453 14.1329 148.967 15.5185 148.967C16.7615 148.967 17.7905 145.332 17.99 140.565H41.9009C42.1004 145.332 43.1294 148.967 44.3723 148.967C45.758 148.967 46.8813 144.453 46.8813 138.885C46.8813 133.318 45.758 128.804 44.3723 128.804Z" fill="#3F3D56"/>
<path d="M56.0194 124.001C52.4754 117.621 46.7377 112.757 39.8805 110.32C33.0233 107.883 25.5169 108.04 18.7669 110.762C12.0168 113.484 6.48598 118.584 3.20996 125.108C-0.0660646 131.631 -0.862617 139.13 0.969448 146.201C2.80151 153.272 7.13657 159.429 13.1629 163.521C19.1892 167.612 26.4936 169.357 33.7083 168.428C40.923 167.499 47.5532 163.961 52.3576 158.475C57.162 152.989 59.8111 145.933 59.8088 138.626C59.8072 133.506 58.5028 128.472 56.0194 124.001ZM29.8976 166.265C22.6481 166.228 15.7091 163.304 10.6026 158.135C5.49607 152.966 2.63887 145.974 2.65762 138.692C2.67638 131.409 5.56957 124.432 10.7026 119.289C15.8357 114.147 22.7897 111.259 30.0393 111.26C37.289 111.26 44.2426 114.149 49.375 119.292C54.5074 124.435 57.3997 131.413 57.4175 138.695C57.4353 145.977 54.5772 152.969 49.47 158.138C44.3628 163.306 37.4235 166.229 30.1739 166.265C30.0818 166.266 29.9897 166.266 29.8976 166.265Z" fill="#3F3D56"/>
<path d="M29.9122 168.822C24.2129 168.825 18.6308 167.197 13.8193 164.129C13.579 163.975 13.3936 163.748 13.2897 163.481L13.2746 163.442C13.1702 163.178 13.153 162.887 13.2256 162.613C13.2983 162.338 13.4569 162.094 13.678 161.917C13.8918 161.736 14.1577 161.63 14.4365 161.612C14.7153 161.595 14.9922 161.669 15.2263 161.822C20.3404 165.092 26.3911 166.562 32.4278 166.003C38.4645 165.443 44.1451 162.885 48.5771 158.73C53.0092 154.575 55.9416 149.059 56.9137 143.049C57.8858 137.038 56.8425 130.873 53.9477 125.523C53.8119 125.277 53.7583 124.995 53.7946 124.716C53.8309 124.438 53.9552 124.179 54.1492 123.977C54.3409 123.768 54.5944 123.626 54.8725 123.572C55.1506 123.518 55.4385 123.556 55.6939 123.679L55.7314 123.696C55.9875 123.817 56.1989 124.016 56.3352 124.265C58.8131 128.861 60.0601 134.026 59.9542 139.252C59.8482 144.478 58.393 149.587 55.7308 154.079C53.0687 158.57 49.291 162.291 44.7676 164.875C40.2442 167.459 35.1301 168.82 29.9262 168.822H29.9122Z" fill="#EC603C"/>
<path d="M140.069 108.586C136.14 108.584 132.25 109.36 128.62 110.869C124.99 112.378 121.691 114.59 118.912 117.38C116.133 120.169 113.929 123.481 112.424 127.127C110.92 130.772 110.145 134.68 110.145 138.626C110.144 142.572 110.917 146.48 112.42 150.126C113.923 153.772 116.127 157.085 118.904 159.876C121.682 162.667 124.98 164.88 128.61 166.39C132.239 167.9 136.13 168.677 140.058 168.677H140.069C140.263 168.677 140.453 168.677 140.647 168.669C148.528 168.517 156.031 165.245 161.524 159.566C167.017 153.886 170.056 146.258 169.98 138.34C169.904 130.422 166.719 122.855 161.118 117.283C155.516 111.711 147.952 108.586 140.069 108.586ZM146.165 165.585C142.39 166.446 138.476 166.497 134.679 165.735C130.883 164.973 127.289 163.415 124.133 161.163C120.977 158.91 118.33 156.014 116.364 152.663C114.398 149.313 113.159 145.583 112.726 141.719C112.293 137.854 112.677 133.941 113.853 130.236C115.029 126.531 116.97 123.116 119.549 120.216C122.128 117.315 125.287 114.994 128.821 113.404C132.354 111.814 136.181 110.991 140.053 110.988H140.069C146.837 110.988 153.367 113.492 158.412 118.023C163.457 122.554 166.663 128.793 167.417 135.549C168.172 142.304 166.421 149.102 162.501 154.643C158.58 160.184 152.765 164.079 146.165 165.585Z" fill="#3F3D56"/>
<path d="M140.069 168.828C132.65 168.828 125.494 166.072 119.976 161.091C114.458 156.11 110.969 149.256 110.179 141.846C109.389 134.436 111.355 126.995 115.698 120.954C120.041 114.912 126.454 110.697 133.705 109.119C133.883 109.081 134.067 109.078 134.246 109.112L134.309 109.124C134.61 109.183 134.881 109.344 135.077 109.58C135.274 109.816 135.383 110.113 135.386 110.421C135.39 110.729 135.288 111.029 135.097 111.269C134.906 111.51 134.638 111.678 134.339 111.743C127.73 113.167 121.879 116.996 117.913 122.494C113.946 127.992 112.146 134.77 112.858 141.522C113.57 148.274 116.744 154.523 121.769 159.065C126.794 163.606 133.314 166.119 140.073 166.12C140.337 166.118 140.594 166.117 140.855 166.109C141.146 166.097 141.432 166.188 141.663 166.366C141.894 166.545 142.055 166.799 142.118 167.085C142.187 167.361 142.156 167.653 142.032 167.908C141.907 168.164 141.696 168.367 141.437 168.481C141.261 168.562 141.084 168.642 140.906 168.72C140.757 168.787 140.595 168.823 140.432 168.826C140.311 168.828 140.191 168.828 140.069 168.828Z" fill="#EC603C"/>
<path d="M154.825 137.354C154.028 137.314 153.24 137.537 152.581 137.989C151.922 138.441 151.428 139.097 151.175 139.857H148.23L146.079 133.361C145.999 133.117 145.845 132.905 145.638 132.755C145.432 132.605 145.183 132.524 144.928 132.524H144.905C144.646 132.528 144.396 132.616 144.191 132.775C143.986 132.934 143.838 133.156 143.769 133.406L140.4 145.219L136.439 121.327C136.393 121.051 136.254 120.799 136.045 120.613C135.836 120.427 135.569 120.32 135.29 120.308C135.011 120.297 134.737 120.382 134.513 120.549C134.29 120.717 134.13 120.957 134.061 121.228L130.048 139.857H125.55C125.229 139.857 124.92 139.985 124.693 140.213C124.466 140.441 124.338 140.751 124.338 141.074C124.338 141.397 124.466 141.706 124.693 141.934C124.92 142.163 125.229 142.291 125.55 142.291H131.002C131.272 142.291 131.534 142.201 131.747 142.034C131.96 141.867 132.111 141.633 132.176 141.37L135.008 127.511L138.893 150.932C138.937 151.205 139.073 151.454 139.279 151.638C139.484 151.822 139.746 151.93 140.021 151.943H140.089C140.352 151.943 140.608 151.857 140.819 151.698C141.029 151.539 141.182 151.315 141.255 151.061L145.019 137.856L146.208 141.454C146.289 141.697 146.443 141.908 146.65 142.058C146.856 142.208 147.104 142.289 147.359 142.291H151.228C151.46 142.906 151.852 143.447 152.364 143.857C152.877 144.267 153.49 144.53 154.139 144.619C154.788 144.708 155.448 144.619 156.051 144.362C156.654 144.105 157.176 143.688 157.563 143.158C157.95 142.627 158.187 142.001 158.249 141.346C158.311 140.691 158.195 140.031 157.915 139.437C157.634 138.842 157.199 138.335 156.655 137.968C156.111 137.602 155.479 137.39 154.825 137.354Z" fill="#3F3D56"/>
<path d="M272.7 219H217.855C217.776 219 217.7 218.968 217.643 218.912C217.587 218.855 217.556 218.779 217.556 218.699C217.556 218.619 217.587 218.543 217.643 218.486C217.7 218.43 217.776 218.398 217.855 218.398H272.7C272.78 218.398 272.856 218.43 272.912 218.486C272.968 218.543 273 218.619 273 218.699C273 218.779 272.968 218.855 272.912 218.912C272.856 218.968 272.78 219 272.7 219Z" fill="#EC603C"/>
</g>
<defs>
<clipPath id="clip0_67_769">
<rect width="273" height="219" fill="white"/>
</clipPath>
</defs>
</svg>
