<svg width="232" height="177" viewBox="0 0 232 177" fill="none" xmlns="http://www.w3.org/2000/svg">
<g clip-path="url(#clip0_7_2724)">
<path d="M0 160.432C0 160.627 0.155917 160.783 0.350075 160.783H231.65C231.844 160.783 232 160.627 232 160.432C232 160.238 231.844 160.082 231.65 160.082H0.350075C0.155917 160.082 0 160.238 0 160.432Z" fill="#3F3D56"/>
<path d="M127.098 61.247L129.485 46.3089L113.375 39.7361L110.988 62.442L127.098 61.247Z" fill="#    "/>
<path d="M123.027 51.111C132.1 51.111 139.455 43.7452 139.455 34.659C139.455 25.5729 132.1 18.2071 123.027 18.2071C113.954 18.2071 106.599 25.5729 106.599 34.659C106.599 43.7452 113.954 51.111 123.027 51.111Z" fill="#A0616A"/>
<path d="M121.716 12.5405C122.191 12.8184 122.828 12.398 122.981 11.8683C123.133 11.3386 122.955 10.7763 122.779 10.254C122.484 9.37763 122.188 8.50124 121.893 7.62486C121.264 5.76021 120.597 3.8304 119.236 2.41116C117.181 0.269038 113.915 -0.275907 110.975 0.118886C107.2 0.625877 103.474 2.67316 101.719 6.0586C99.9636 9.44404 100.711 14.1679 103.883 16.2801C99.3622 21.4691 97.7863 27.2521 98.0351 34.1339C98.2839 41.0158 105.773 47.3493 110.656 52.1973C111.747 51.5353 112.738 48.4325 112.139 47.3054C111.539 46.1782 112.398 44.8724 111.656 43.8342C110.913 42.796 110.291 44.4491 111.042 43.4168C111.516 42.7654 109.667 41.2667 110.371 40.8769C113.778 38.991 114.911 34.7386 117.05 31.4822C119.631 27.5544 124.048 24.8944 128.723 24.4531C131.298 24.21 134.017 24.6503 136.128 26.1474C138.239 27.6444 139.605 30.3196 139.115 32.8629C140.383 31.5741 141.014 29.6852 140.776 27.892C140.538 26.0988 139.436 24.4406 137.877 23.528C138.825 20.3873 138.013 16.7747 135.811 14.3443C133.61 11.9139 124.681 12.3279 121.467 12.9675" fill="#2F2E41"/>
<path d="M121.217 24.5485C116.961 25.0086 113.887 28.7008 111.292 32.1105C109.797 34.0758 108.23 36.2461 108.268 38.7168C108.306 41.2148 109.973 43.3573 110.77 45.7246C112.073 49.5941 110.803 54.1978 107.702 56.8492C110.767 57.4315 114.079 55.1305 114.608 52.0523C115.224 48.4688 112.511 45.0102 112.833 41.3882C113.116 38.1973 115.627 35.7415 117.761 33.3556C119.896 30.9697 121.901 27.8038 120.919 24.755" fill="#2F2E41"/>
<path d="M122.032 175.232C122.032 175.232 86.4376 178.768 83.7901 174.643C81.1426 170.519 119.911 166.395 119.911 166.395L122.032 175.232Z" fill="#A0616A"/>
<path d="M99.3367 109.145L98.6013 113.055C100.604 116.015 100.796 119.145 99.6309 122.402L140.226 122.696C139.79 118.291 139.312 113.573 140.983 109.245L99.3367 109.145Z" fill="#A0616A"/>
<path d="M165.829 138.212L151.106 126.417C149.15 124.85 147.884 122.52 147.631 120.023L145.363 97.5539L158.878 93.0421L162.137 115.291L170.259 133.776L165.829 138.212Z" fill="#A0616A"/>
<path d="M109.485 59.8016L129.195 58.9178L150.08 68.8805L141.55 109.587L98.3072 112.828L92.4238 67.7555L109.485 59.8016Z" fill="#EC603C"/>
<path d="M140.983 118.966C143.944 122.875 145.188 132.287 146.447 141.649C146.447 141.649 91.7324 141.355 91.4382 141.355C91.1441 141.355 99.8 121.617 99.8 121.617L140.983 118.966Z" fill="#2F2E41"/>
<path d="M142.77 139.152L146.447 141.649C146.447 141.649 198.515 138.114 194.102 154.611C189.69 171.108 175.864 173.76 175.864 173.76L119.972 177L119.384 167.868C119.384 167.868 65.5516 179.946 60.5507 155.2C55.5499 130.455 91.4382 141.355 91.4382 141.355L142.77 139.152Z" fill="#2F2E41"/>
<path d="M120.801 158.736C120.801 158.736 122.032 152.255 130.857 154.906C139.682 157.557 144.682 161.092 144.682 161.092L123.502 166.395L120.801 158.736Z" fill="#A0616A"/>
<path d="M142.873 68.1974C142.873 68.1974 152.875 64.6623 156.699 76.1513C160.523 87.6403 159.641 97.0671 159.641 97.0671L144.932 101.781L142.873 68.1974Z" fill="#EC603C"/>
<path d="M74.2899 140.005L71.0811 134.344L78.0138 117.06L81.2726 94.8096L94.7883 99.3214L92.492 122.063C92.2574 124.386 91.0785 126.555 89.2576 128.014L74.2899 140.005Z" fill="#A0616A"/>
<path d="M97.2776 68.1974C97.2776 68.1974 87.2759 64.6623 83.4518 76.1513C79.6276 87.6403 80.5101 97.0671 80.5101 97.0671L95.2184 101.781L97.2776 68.1974Z" fill="#EC603C"/>
<path d="M170.084 140.814C173.983 140.814 177.144 136.131 177.144 130.356C177.144 124.58 173.983 119.898 170.084 119.898C166.185 119.898 163.024 124.58 163.024 130.356C163.024 136.131 166.185 140.814 170.084 140.814Z" fill="#A0616A"/>
<path d="M70.9496 142.581C74.8487 142.581 78.0096 137.899 78.0096 132.123C78.0096 126.348 74.8487 121.665 70.9496 121.665C67.0505 121.665 63.8896 126.348 63.8896 132.123C63.8896 137.899 67.0505 142.581 70.9496 142.581Z" fill="#A0616A"/>
<path d="M97.9099 149.603L123.502 156.968L128.503 165.806L118.94 167.868" fill="#2F2E41"/>
</g>
<defs>
<clipPath id="clip0_7_2724">
<rect width="232" height="177" fill="white"/>
</clipPath>
</defs>
</svg>
