<svg width="238" height="218" viewBox="0 0 238 218" fill="none" xmlns="http://www.w3.org/2000/svg">
<g clip-path="url(#clip0_67_704)">
<path d="M137.062 74.5785C137.062 74.5785 136.964 78.8166 129.238 85.0112L127.489 88.1573L143.814 97.6031C145.284 97.6712 146.936 98.061 148.582 98.7934C152.851 100.693 155.455 104.169 154.398 106.555C153.341 108.942 149.023 109.336 144.754 107.436C143.82 107.021 142.966 106.53 142.212 105.991C136.617 104.585 111.722 97.8636 114.477 90.2154C117.578 81.6057 120.613 71.5392 120.613 71.5392L137.062 74.5785Z" fill="#FFB6B6"/>
<path d="M123.514 59.0487C124.494 55.8129 126.849 53.2272 129.974 51.9543C133.098 50.6816 136.583 50.8907 139.539 52.521C142.404 54.105 144.42 56.8566 145.071 60.0707C145.722 63.2847 144.936 66.6067 142.914 69.1853L136.104 77.8719L118.92 74.2117L123.514 59.0487Z" fill="#EC603C"/>
<path d="M158.974 91.1975C154.013 89.4215 148.814 88.5461 143.397 88.4939C142.832 88.3958 142.292 88.7773 142.194 89.3444L141.606 92.7493C141.508 93.3164 141.888 93.8578 142.454 93.9562C144.566 95.2134 146.718 95.9764 148.897 96.406L146.639 109.481C144.103 108.987 141.773 108.869 139.79 109.379C139.224 109.281 138.684 109.662 138.587 110.229L137.998 113.635C137.9 114.201 138.281 114.743 138.847 114.841C143.265 116.437 148.64 117.175 154.423 117.545C154.989 117.643 155.529 117.261 155.626 116.694L156.215 113.289C156.313 112.722 155.932 112.181 155.366 112.083C153.136 111.272 150.946 110.535 148.862 109.99L151.15 96.7391C153.423 96.9623 155.721 96.8802 158.03 96.6598C158.596 96.7579 159.136 96.3764 159.234 95.8092L159.822 92.4041C159.92 91.8372 159.539 91.2956 158.974 91.1975Z" fill="#2F2E41"/>
<path d="M89.6247 203.72L74.4025 188.113L85.4043 172.357L88.3868 172.553C89.9706 172.657 91.3404 171.458 91.4509 169.871L92.0119 161.81C92.1282 160.139 90.8074 158.719 89.1361 158.719H61.1761C61.4029 158.173 61.4636 157.565 61.3305 156.974L44.6499 82.9638C44.3277 81.5349 42.9898 80.5735 41.5365 80.727L34.9463 81.4221C33.2309 81.6033 32.0569 83.2437 32.4358 84.9308L50.3083 164.529C50.7114 166.324 52.5586 167.162 54.0901 166.616C54.0052 166.852 53.9566 167.093 53.9363 167.334L51.5666 167.524L11.2314 212.524H23.5922L54.8194 177.633L84.7455 212.524H94.504L94.8292 206.655L89.6247 203.72ZM60.3648 170.711L76.7347 171.787L70.3221 183.93L60.9998 174.372L60.3648 170.711Z" fill="#3F3D56"/>
<path d="M0 212.621C0 212.836 0.17241 213.009 0.387107 213.009H237.613C237.828 213.009 238 212.836 238 212.621C238 212.406 237.828 212.233 237.613 212.233H0.387107C0.17241 212.233 0 212.406 0 212.621Z" fill="#3F3D56"/>
<path d="M141.743 33.9219C149.108 33.9219 155.079 27.9361 155.079 20.5523C155.079 13.1684 149.108 7.18257 141.743 7.18257C134.377 7.18257 128.406 13.1684 128.406 20.5523C128.406 27.9361 134.377 33.9219 141.743 33.9219Z" fill="#FFB6B6"/>
<path d="M116.298 191.002V204.372L106.214 204.698L106.634 191.002H116.298Z" fill="#FFB6B6"/>
<path d="M113.343 202.669L113.307 202.723L113.243 202.738C113 202.792 107.264 204.039 105.594 201.695C105.462 201.51 105.347 201.433 105.248 201.463C104.156 201.814 103.287 210.169 103.287 213.34C103.287 215.208 107.445 215.689 112.71 216.299C115.169 216.583 117.957 216.905 120.719 217.418C126.724 218.533 131.672 215.774 134.088 214.03C134.515 213.722 134.777 213.243 134.806 212.715C134.835 212.186 134.626 211.678 134.232 211.323C131.047 208.446 120.513 199.017 118.693 198.496C118.563 198.459 118.43 198.442 118.293 198.442C116.181 198.442 113.373 202.624 113.343 202.669Z" fill="#2F2E41"/>
<path d="M135.164 191.002V204.372L125.081 204.698L125.501 191.002H135.164Z" fill="#FFB6B6"/>
<path d="M139.23 95.2949L144.598 99.3711L145.573 145.35L136.465 195.568L124.593 196.057L124.267 148.122L108.979 104.425L112.069 94.1536L139.23 95.2949Z" fill="#2F2E41"/>
<path d="M114.184 103.121L108.979 104.425L105.238 195.568L118.738 194.426L127.683 130.024L114.184 103.121Z" fill="#2F2E41"/>
<path d="M139.526 217.739C136.775 217.228 133.993 216.906 131.539 216.622C125.901 215.97 121.828 215.499 121.828 213.34C121.828 211.702 122.458 201.653 124.015 201.153C124.186 201.098 124.447 201.116 124.725 201.505C126.182 203.551 131.346 202.562 131.976 202.433C132.366 201.859 135.393 197.535 137.649 198.183C139.389 198.681 148.01 206.295 152.994 210.79C153.548 211.289 153.838 212.003 153.789 212.748C153.741 213.486 153.365 214.149 152.759 214.567C150.751 215.949 146.991 218 142.364 218C141.449 218 140.501 217.92 139.526 217.739Z" fill="#2F2E41"/>
<path d="M127.152 37.2179L130.067 27.4042L142.75 30.6263L142.235 41.2756L127.152 37.2179Z" fill="#FFB6B6"/>
<path d="M112.039 94.3138L111.898 94.2874L114.132 58.9461C114.594 51.646 117.232 44.7561 121.761 39.0212L127.316 31.9867L145.002 41.8366L145.069 41.8738L148.986 62.8191L148.993 62.8576L144.754 99.4176L144.712 99.5583L112.039 94.3138Z" fill="#EC603C"/>
<path d="M130.181 27.7093L131.324 27.9745C131.324 27.9745 133.29 20.2616 134.588 21.8623C135.885 23.463 139.198 23.9534 139.198 23.9534L140.336 21.4325C140.336 21.4325 146.503 21.1928 147.526 18.3668C147.526 18.3668 160.624 18.9929 156.957 12.0149C153.29 5.03685 152.112 6.52736 152.112 6.52736C152.112 6.52736 148.53 4.39627 147.727 2.26037C146.923 0.124464 139.022 -1.7386 134.364 2.77967C117.299 19.3351 130.181 27.7093 130.181 27.7093Z" fill="#3F3D56"/>
<path d="M161.136 77.5597L158.896 77.9686L161.459 92.0845L163.7 91.6757L161.136 77.5597Z" fill="#3F3D56"/>
<path d="M154.949 94.1014C158.448 91.6877 164.257 91.2861 170.501 91.2628C171.066 91.1598 171.609 91.5367 171.712 92.1028L172.33 95.5027C172.432 96.0689 172.056 96.6136 171.492 96.7167C165.935 98.3656 160.636 99.5287 155.939 99.5552C155.375 99.6583 154.831 99.2813 154.728 98.7152L154.111 95.3153C154.008 94.7492 154.384 94.2044 154.949 94.1014Z" fill="#3F3D56"/>
<path d="M151.162 73.2483C156.265 71.4274 161.447 70.4548 166.714 70.4098C167.279 70.3067 167.822 70.6837 167.925 71.2498L168.543 74.6497C168.645 75.2158 168.269 75.7606 167.705 75.8637C162.898 78.1703 157.897 79.7753 152.152 78.7022C151.588 78.8053 151.044 78.4283 150.941 77.8622L150.324 74.4623C150.221 73.8962 150.597 73.3514 151.162 73.2483Z" fill="#3F3D56"/>
<path d="M140.434 62.3711C140.434 62.3711 141.798 66.3836 136.672 74.8663L136.111 78.4238L154.681 81.6568C156.085 81.2131 157.77 81.0089 159.566 81.1284C164.227 81.4385 167.865 83.8023 167.693 86.4079C167.52 89.0134 163.602 90.8744 158.942 90.5643C157.922 90.4964 156.952 90.3304 156.059 90.0849C150.323 90.6964 124.642 92.9792 124.601 84.8478C124.555 75.6941 123.947 65.1958 123.947 65.1958L140.434 62.3711Z" fill="#FFB6B6"/>
<path d="M122.38 52.4676C122.189 49.0914 123.511 45.851 126.008 43.5772C128.504 41.3037 131.847 40.2972 135.183 40.8073C138.417 41.3056 141.255 43.1929 142.97 45.9856C144.685 48.7784 145.088 52.1687 144.076 55.2874L140.666 65.7935L123.276 68.2889L122.38 52.4676Z" fill="#EC603C"/>
<path d="M51.3242 191.543L50.731 205.879L53.006 205.973L53.5992 191.638L51.3242 191.543Z" fill="#3F3D56"/>
<path d="M43.9376 206.412C47.88 204.828 53.6353 205.716 59.732 207.069C60.3055 207.093 60.753 207.58 60.7292 208.155L60.5863 211.608C60.5625 212.183 60.0763 212.632 59.5028 212.608C53.7205 212.992 48.2957 212.959 43.7083 211.951C43.1348 211.927 42.6873 211.44 42.7111 210.865L42.854 207.412C42.8778 206.837 43.364 206.388 43.9376 206.412Z" fill="#3F3D56"/>
<path d="M44.814 185.234C50.1921 184.582 55.4603 184.775 60.6084 185.891C61.182 185.915 61.6295 186.403 61.6057 186.978L61.4628 190.43C61.439 191.005 60.9527 191.454 60.3792 191.43C55.1848 192.622 49.9544 193.086 44.5848 190.773C44.0113 190.749 43.5638 190.262 43.5876 189.687L43.7305 186.234C43.7543 185.659 44.2405 185.211 44.814 185.234Z" fill="#3F3D56"/>
</g>
<defs>
<clipPath id="clip0_67_704">
<rect width="238" height="218" fill="white"/>
</clipPath>
</defs>
</svg>
