<svg width="39" height="39" viewBox="0 0 39 39" fill="none" xmlns="http://www.w3.org/2000/svg">
<circle cx="19.5" cy="19.5" r="19" fill="#EC603C" stroke="white"/>
<g clip-path="url(#clip0_101_1235)">
<path d="M18.834 23.3594C19.5176 23.3594 19.8301 22.8906 19.8301 22.2656C19.8301 22.1582 19.8301 22.041 19.8301 21.9336C19.8496 20.6445 20.3086 20.1074 21.8711 19.0332C23.5508 17.9004 24.6152 16.5918 24.6152 14.707C24.6152 11.7773 22.2324 10.0977 19.2637 10.0977C17.0566 10.0977 15.123 11.1426 14.293 13.0273C14.0879 13.4863 14 13.9356 14 14.3066C14 14.8633 14.3223 15.2539 14.918 15.2539C15.416 15.2539 15.7481 14.9609 15.8945 14.4824C16.3926 12.627 17.6231 11.9238 19.1953 11.9238C21.0996 11.9238 22.5938 12.998 22.5938 14.6973C22.5938 16.0937 21.7246 16.875 20.4746 17.7539C18.9414 18.8184 17.8184 19.9609 17.8184 21.6797C17.8184 21.8848 17.8184 22.0898 17.8184 22.2949C17.8184 22.9199 18.1602 23.3594 18.834 23.3594ZM18.834 28.7012C19.6152 28.7012 20.2305 28.0762 20.2305 27.3145C20.2305 26.543 19.6152 25.9277 18.834 25.9277C18.0723 25.9277 17.4473 26.543 17.4473 27.3145C17.4473 28.0762 18.0723 28.7012 18.834 28.7012Z" fill="white"/>
</g>
<defs>
<clipPath id="clip0_101_1235">
<rect width="10.6152" height="18.7012" fill="white" transform="translate(14 10)"/>
</clipPath>
</defs>
</svg>
