<svg width="285" height="200" viewBox="0 0 285 200" fill="none" xmlns="http://www.w3.org/2000/svg">
<g clip-path="url(#clip0_68_1052)">
<path d="M145.097 199.576C153.642 199.576 160.569 192.657 160.569 184.121C160.569 175.585 153.642 168.665 145.097 168.665C136.552 168.665 129.625 175.585 129.625 184.121C129.625 192.657 136.552 199.576 145.097 199.576Z" fill="#EC603C"/>
<path d="M237.527 198.708C246.183 196.111 255.385 193.403 262.249 187.23C268.383 181.714 272.525 173.29 269.983 165.018C267.447 156.762 259.851 151.257 252.009 148.519C247.56 146.966 242.907 146.104 238.255 145.428C233.198 144.692 228.119 144.089 223.042 143.509C202.485 141.16 181.851 139.726 161.14 139.205C150.92 138.948 140.702 138.954 130.481 139.102C121.353 139.234 111.739 139.231 103.271 135.356C96.6859 132.342 90.7092 126.859 88.8744 119.654C86.7563 111.337 90.663 102.867 96.2672 96.843C99.2212 93.6679 102.674 90.9956 106.235 88.5383C110.099 85.8725 114.097 83.3955 118.182 81.0834C126.228 76.5317 134.64 72.6579 143.33 69.5024C147.617 67.9453 151.967 66.6019 156.356 65.3626C160.061 64.3161 163.778 63.2681 167.36 61.8423C174.283 59.0859 180.868 54.417 182.628 46.7627C184.296 39.5083 181.483 31.633 176.552 26.2438C170.846 20.0089 162.244 17.2757 153.996 16.8335C144.737 16.337 135.692 18.6518 126.989 21.5897C117.707 24.7231 108.625 28.3259 99.1469 30.864C89.748 33.3783 80.1673 35.1573 70.4917 36.1849C65.7552 36.6887 60.8755 37.2576 56.1109 36.8719C52.1176 36.5486 48.1448 35.3755 45.2018 32.5445C42.6784 30.117 41.1751 26.781 41.6919 23.2604C41.7858 22.6209 42.7582 22.8928 42.6649 23.5283C42.0358 27.8139 44.9521 31.7629 48.5457 33.7858C52.6989 36.1237 57.7528 36.1268 62.3768 35.8595C72.4029 35.2546 82.3611 33.8165 92.1482 31.5603C101.765 29.3661 111.039 26.2294 120.302 22.8787C129.099 19.6964 138.093 16.5905 147.492 15.9012C155.647 15.3031 164.226 16.4899 171.33 20.7472C177.574 24.4887 182.165 30.7284 183.628 37.8886C185.058 44.8854 183.078 51.9278 177.776 56.8104C172.286 61.8658 164.759 64.0271 157.744 66.0177C148.847 68.5424 140.141 71.4936 131.714 75.3256C123.172 79.1987 114.98 83.7995 107.228 89.0768C99.7454 94.1846 92.3611 100.611 89.9946 109.724C88.8923 113.968 89.0958 118.47 90.9403 122.479C92.5803 126.044 95.2813 129.043 98.4279 131.356C105.935 136.874 115.397 138.007 124.466 138.12C134.651 138.246 144.836 137.903 155.024 138.07C175.788 138.41 196.509 139.673 217.187 141.857C222.369 142.405 227.544 143.011 232.712 143.674C237.361 144.271 242.026 144.864 246.596 145.923C254.723 147.808 262.631 151.431 267.682 158.314C269.924 161.297 271.313 164.833 271.7 168.543C272.054 172.415 271.105 176.294 269.353 179.739C265.474 187.362 258.208 192.212 250.493 195.397C246.36 197.104 242.073 198.396 237.795 199.68C237.172 199.867 236.906 198.894 237.527 198.708Z" fill="#F2F2F2"/>
<path d="M42.3435 31.4147C46.8017 31.4147 50.4158 27.8045 50.4158 23.3511C50.4158 18.8976 46.8017 15.2874 42.3435 15.2874C37.8853 15.2874 34.2712 18.8976 34.2712 23.3511C34.2712 27.8045 37.8853 31.4147 42.3435 31.4147Z" fill="#F2F2F2"/>
<path d="M98.345 46.7022C102.803 46.7022 106.417 43.0919 106.417 38.6385C106.417 34.185 102.803 30.5748 98.345 30.5748C93.8868 30.5748 90.2727 34.185 90.2727 38.6385C90.2727 43.0919 93.8868 46.7022 98.345 46.7022Z" fill="#F2F2F2"/>
<path d="M145.77 16.1274C150.228 16.1274 153.842 12.5171 153.842 8.06368C153.842 3.61023 150.228 0 145.77 0C141.311 0 137.697 3.61023 137.697 8.06368C137.697 12.5171 141.311 16.1274 145.77 16.1274Z" fill="#F2F2F2"/>
<path d="M175.368 50.398C179.826 50.398 183.44 46.7878 183.44 42.3343C183.44 37.8809 179.826 34.2707 175.368 34.2707C170.91 34.2707 167.296 37.8809 167.296 42.3343C167.296 46.7878 170.91 50.398 175.368 50.398Z" fill="#F2F2F2"/>
<path d="M135.343 90.0444C139.801 90.0444 143.415 86.4342 143.415 81.9808C143.415 77.5273 139.801 73.9171 135.343 73.9171C130.885 73.9171 127.271 77.5273 127.271 81.9808C127.271 86.4342 130.885 90.0444 135.343 90.0444Z" fill="#F2F2F2"/>
<path d="M84.5547 109.196C89.0129 109.196 92.627 105.585 92.627 101.132C92.627 96.6786 89.0129 93.0683 84.5547 93.0683C80.0965 93.0683 76.4824 96.6786 76.4824 101.132C76.4824 105.585 80.0965 109.196 84.5547 109.196Z" fill="#F2F2F2"/>
<path d="M138.37 139.099C142.828 139.099 146.442 135.488 146.442 131.035C146.442 126.581 142.828 122.971 138.37 122.971C133.912 122.971 130.298 126.581 130.298 131.035C130.298 135.488 133.912 139.099 138.37 139.099Z" fill="#F2F2F2"/>
<path d="M196.221 155.898C200.68 155.898 204.294 152.288 204.294 147.834C204.294 143.381 200.68 139.771 196.221 139.771C191.763 139.771 188.149 143.381 188.149 147.834C188.149 152.288 191.763 155.898 196.221 155.898Z" fill="#F2F2F2"/>
<path d="M263.827 152.202C268.285 152.202 271.899 148.592 271.899 144.138C271.899 139.685 268.285 136.075 263.827 136.075C259.369 136.075 255.755 139.685 255.755 144.138C255.755 148.592 259.369 152.202 263.827 152.202Z" fill="#F2F2F2"/>
<path d="M143.439 22.8482C119.259 23.0189 99.4603 42.6479 99.1168 66.8008C99.1136 67.0238 99.1121 68.5918 99.1123 70.6425C99.1125 73.6495 100.308 76.5332 102.437 78.6594C104.565 80.7857 107.452 81.9804 110.462 81.9808C111.954 81.9804 113.432 81.6864 114.81 81.1155C116.188 80.5445 117.44 79.7079 118.495 78.6533C119.55 77.5988 120.386 76.3469 120.956 74.9694C121.526 73.5919 121.819 72.1157 121.817 70.6252C121.816 69.2301 121.815 68.2646 121.815 68.2053C121.815 64.4725 122.787 60.8038 124.636 57.5601C126.485 54.3163 129.148 51.6093 132.362 49.7053C135.576 47.8012 139.231 46.7658 142.967 46.7008C146.703 46.6358 150.392 47.5435 153.67 49.3346C156.949 51.1256 159.704 53.7384 161.665 56.9158C163.626 60.0933 164.726 63.726 164.855 67.4565C164.984 71.1871 164.139 74.887 162.403 78.1924C160.667 81.4978 158.099 84.2947 154.952 86.3081L154.956 86.3128C154.956 86.3128 138.802 96.7014 133.877 110.953L133.881 110.954C133.015 113.873 132.577 116.902 132.579 119.947C132.579 121.199 132.652 132.151 132.795 141.04C132.844 144.107 134.099 147.031 136.288 149.182C138.478 151.334 141.425 152.539 144.496 152.538C146.039 152.538 147.567 152.233 148.991 151.641C150.416 151.049 151.709 150.181 152.797 149.088C153.885 147.995 154.745 146.698 155.329 145.271C155.913 143.844 156.208 142.316 156.199 140.775C156.149 132.634 156.123 123.155 156.123 122.467C156.123 113.716 164.573 104.998 171.515 99.3118C179.509 92.7645 185.261 83.842 187.571 73.7771C188.082 71.705 188.364 69.583 188.412 67.4493C188.412 61.565 187.246 55.7388 184.982 50.3064C182.718 44.874 179.4 39.9429 175.22 35.7971C171.04 31.6512 166.079 28.3727 160.625 26.1503C155.171 23.928 149.33 22.8057 143.439 22.8482Z" fill="#EC603C"/>
<path d="M283.702 200H0.400543C0.29453 200 0.192966 199.957 0.118112 199.882C0.0432579 199.807 0.0012207 199.706 0.0012207 199.6C0.0012207 199.494 0.0432579 199.392 0.118112 199.317C0.192966 199.242 0.29453 199.2 0.400543 199.2H283.702C283.808 199.2 283.91 199.242 283.985 199.317C284.06 199.392 284.103 199.494 284.103 199.6C284.103 199.706 284.06 199.808 283.985 199.883C283.91 199.958 283.808 200 283.702 200Z" fill="#3F3D56"/>
<path d="M211.376 91.723C216.949 91.723 221.466 87.2102 221.466 81.6434C221.466 76.0766 216.949 71.5638 211.376 71.5638C205.803 71.5638 201.285 76.0766 201.285 81.6434C201.285 87.2102 205.803 91.723 211.376 91.723Z" fill="#2F2E41"/>
<path d="M192.73 195.588H188.607L186.645 179.7H192.731L192.73 195.588Z" fill="#A0616A"/>
<path d="M185.661 194.411H193.614V199.412H180.654C180.654 198.755 180.784 198.105 181.035 197.498C181.287 196.891 181.656 196.34 182.121 195.876C182.586 195.411 183.138 195.043 183.745 194.791C184.353 194.54 185.004 194.411 185.661 194.411Z" fill="#2F2E41"/>
<path d="M224.683 195.588H220.559L218.597 179.7H224.684L224.683 195.588Z" fill="#A0616A"/>
<path d="M217.614 194.411H225.566V199.412H212.607C212.607 198.755 212.736 198.105 212.988 197.498C213.239 196.891 213.608 196.34 214.073 195.876C214.538 195.411 215.09 195.043 215.698 194.791C216.305 194.54 216.956 194.411 217.614 194.411Z" fill="#2F2E41"/>
<path d="M209.842 91.7819C214.405 91.7819 218.103 88.0873 218.103 83.5297C218.103 78.9722 214.405 75.2775 209.842 75.2775C205.28 75.2775 201.581 78.9722 201.581 83.5297C201.581 88.0873 205.28 91.7819 209.842 91.7819Z" fill="#A0616A"/>
<path d="M214.766 118.404L218.463 109.92C219.36 107.93 219.618 105.71 219.199 103.568C218.78 101.426 217.706 99.4657 216.125 97.9589C215.8 97.6382 215.455 97.3386 215.092 97.0618C213.269 95.6366 211.021 94.8597 208.705 94.8544C207.148 94.8604 205.611 95.202 204.198 95.8556C204.077 95.9094 203.959 95.9665 203.838 96.0236C203.606 96.1345 203.378 96.2555 203.156 96.3798C201.708 97.2103 200.475 98.3691 199.558 99.7628C198.641 101.156 198.064 102.746 197.875 104.403L196.244 118.058C195.833 119.129 181.196 157.835 186.315 187.385C186.369 187.701 186.523 187.991 186.755 188.212C186.986 188.434 187.282 188.577 187.6 188.618L192.789 189.324C193.168 189.376 193.553 189.282 193.866 189.062C194.178 188.842 194.396 188.512 194.474 188.138L203.183 146.674C203.237 146.416 203.376 146.184 203.578 146.015C203.78 145.845 204.032 145.748 204.296 145.74C204.559 145.731 204.818 145.81 205.031 145.966C205.244 146.121 205.398 146.343 205.47 146.596L217.773 190.201C217.861 190.518 218.05 190.797 218.312 190.996C218.574 191.195 218.894 191.303 219.223 191.303C219.321 191.302 219.419 191.293 219.515 191.276L225.855 190.056C226.224 189.987 226.554 189.784 226.779 189.485C227.005 189.186 227.111 188.813 227.076 188.44C226.145 178.062 221.194 126.074 214.766 118.404Z" fill="#2F2E41"/>
<path d="M177.738 90.3972C177.681 90.8878 177.732 91.385 177.888 91.8537C178.044 92.3225 178.3 92.7514 178.64 93.1103C178.98 93.4692 179.394 93.7493 179.854 93.9309C180.314 94.1125 180.808 94.1912 181.301 94.1614L185.919 105.246L189.412 100.074L184.492 90.3406C184.387 89.5156 183.982 88.7578 183.355 88.2108C182.728 87.6637 181.922 87.3654 181.09 87.3724C180.257 87.3794 179.456 87.6911 178.839 88.2486C178.221 88.8061 177.829 89.5706 177.738 90.3972Z" fill="#A0616A"/>
<path d="M209.384 129.565C209.875 129.507 210.347 129.341 210.767 129.081C211.187 128.82 211.545 128.471 211.815 128.057C212.086 127.643 212.262 127.176 212.331 126.687C212.401 126.198 212.363 125.699 212.219 125.227L221.934 118.158L216.085 115.97L207.756 123.018C206.977 123.312 206.333 123.882 205.947 124.618C205.561 125.355 205.458 126.207 205.659 127.014C205.859 127.821 206.35 128.527 207.036 128.997C207.723 129.467 208.558 129.669 209.384 129.565Z" fill="#A0616A"/>
<path d="M193.546 112.637C193.174 112.636 192.802 112.6 192.437 112.527C191.553 112.359 190.725 111.977 190.024 111.413C189.323 110.85 188.772 110.123 188.419 109.296L181.949 101.416C181.812 101.25 181.713 101.056 181.657 100.848C181.602 100.64 181.591 100.422 181.626 100.209C181.662 99.9969 181.742 99.7944 181.862 99.6154C181.983 99.4365 182.14 99.2852 182.323 99.1718L186.926 96.3258C187.096 96.2207 187.285 96.1502 187.482 96.1185C187.679 96.0868 187.881 96.0944 188.075 96.141C188.27 96.1875 188.453 96.2721 188.614 96.3897C188.776 96.5074 188.912 96.6558 189.016 96.8265L193.576 104.33L202.308 97.884C203.003 97.5198 203.806 97.4177 204.571 97.5963C205.335 97.7748 206.01 98.2221 206.471 98.8565C206.933 99.4908 207.15 100.27 207.084 101.051C207.018 101.833 206.673 102.564 206.112 103.112L197.396 111.054C196.372 112.068 194.988 112.637 193.546 112.637Z" fill="#2F2E41"/>
<path d="M217.141 124.488C217.129 124.488 217.117 124.488 217.105 124.487C216.893 124.482 216.684 124.432 216.493 124.342C216.301 124.251 216.13 124.121 215.992 123.96L211.9 119.191C211.76 119.028 211.657 118.838 211.597 118.633C211.536 118.428 211.52 118.212 211.55 118C211.579 117.788 211.653 117.585 211.767 117.404C211.88 117.223 212.031 117.068 212.209 116.949L219.872 111.846L212.93 103.509C212.526 102.837 212.378 102.042 212.513 101.269C212.648 100.497 213.056 99.7983 213.663 99.3017C214.271 98.805 215.037 98.5433 215.822 98.5644C216.607 98.5854 217.357 98.8878 217.937 99.4162L226.374 107.652C227.038 108.258 227.545 109.016 227.851 109.861C228.158 110.705 228.254 111.612 228.133 112.502C228.011 113.392 227.675 114.239 227.153 114.971C226.632 115.703 225.94 116.298 225.138 116.704L218.243 124.013C218.101 124.163 217.93 124.282 217.741 124.364C217.551 124.445 217.347 124.487 217.141 124.488Z" fill="#2F2E41"/>
<path d="M207.742 106.916C207.676 106.916 207.611 106.912 207.546 106.903C207.261 106.869 206.992 106.753 206.77 106.57C206.549 106.388 206.385 106.145 206.298 105.872L203.223 96.4548C203.146 96.2167 203.157 95.9588 203.256 95.7287C203.355 95.4987 203.533 95.312 203.759 95.2033L203.859 95.1563C203.949 95.1133 204.039 95.0708 204.13 95.0301C205.564 94.3658 207.125 94.0193 208.705 94.0144C210.757 94.0182 212.763 94.6204 214.478 95.747C214.707 95.8998 214.868 96.1366 214.925 96.4065C214.981 96.6764 214.93 96.9577 214.781 97.1899L209.012 106.217C208.877 106.431 208.69 106.608 208.467 106.73C208.245 106.852 207.996 106.916 207.742 106.916Z" fill="#E6E6E6"/>
<path d="M219.331 77.1435C221.155 77.1435 222.633 75.6668 222.633 73.8452C222.633 72.0237 221.155 70.547 219.331 70.547C217.508 70.547 216.029 72.0237 216.029 73.8452C216.029 75.6668 217.508 77.1435 219.331 77.1435Z" fill="#2F2E41"/>
<path d="M208.012 70.2198C205.693 70.2198 203.469 71.1402 201.829 72.7785C200.189 74.4167 199.267 76.6386 199.267 78.9555V82.6514H203.818L205.994 78.9555L206.647 82.6514H220.457L216.757 78.9555C216.757 76.6386 215.836 74.4167 214.196 72.7785C212.556 71.1402 210.332 70.2198 208.012 70.2198Z" fill="#2F2E41"/>
<path d="M221.028 71.586C221.393 70.4455 222.149 69.4701 223.163 68.8313C224.177 68.1925 225.384 67.9311 226.571 68.0932C228.675 68.4446 230.339 70.1342 231.33 72.0213C232.322 73.9083 232.779 76.0204 233.446 78.0448C234.112 80.0693 235.057 82.1047 236.74 83.4152C238.422 84.7257 241.004 85.0812 242.656 83.7331C242.467 85.138 241.841 86.4482 240.866 87.4781C239.891 88.5081 238.616 89.2059 237.223 89.4726C235.829 89.7394 234.387 89.5617 233.1 88.9647C231.813 88.3677 230.746 87.3816 230.051 86.1459C229.179 84.5964 228.954 82.7804 228.695 81.0218C228.437 79.2632 228.101 77.4436 227.06 76.002C226.019 74.5604 224.07 73.6188 222.417 74.2755L221.028 71.586Z" fill="#2F2E41"/>
<path d="M113.667 76.6179C110.657 76.6175 107.77 75.4228 105.641 73.2966C103.513 71.1703 102.317 68.2866 102.317 65.2796C102.317 63.2289 102.318 61.6609 102.322 61.4379C102.417 54.4136 104.188 47.5132 107.487 41.3094C102.067 48.7222 99.0861 57.6346 98.9581 66.8137C98.9549 67.0367 98.9535 68.6047 98.9536 70.6554C98.9538 73.6624 100.15 76.5461 102.278 78.6723C104.406 80.7986 107.293 81.9933 110.303 81.9936C112.777 81.9927 115.182 81.1853 117.155 79.6941C119.127 78.2029 120.558 76.1093 121.23 73.7315C119.152 75.5932 116.458 76.6212 113.667 76.6179Z" fill="#3F3D56"/>
<path d="M144.209 46.7389C147.689 46.9049 151.076 47.9121 154.081 49.674C157.085 51.436 159.616 53.8999 161.458 56.8544C163.299 59.8089 164.394 63.1656 164.651 66.6363C164.907 70.107 164.317 73.588 162.93 76.7805C164.936 74.4268 166.41 71.6686 167.253 68.694C168.095 65.7194 168.286 62.5983 167.811 59.5435C167.337 56.4887 166.208 53.572 164.503 50.9923C162.798 48.4126 160.556 46.2305 157.93 44.5949C155.304 42.9592 152.356 41.9084 149.286 41.514C146.217 41.1197 143.099 41.3911 140.144 42.3098C137.189 43.2285 134.467 44.7729 132.164 46.8376C129.861 48.9023 128.03 51.4389 126.797 54.2743C128.928 51.7703 131.606 49.7887 134.625 48.4822C137.644 47.1757 140.923 46.5793 144.209 46.7389Z" fill="#3F3D56"/>
<path d="M147.701 147.175C144.63 147.176 141.682 145.971 139.493 143.819C137.304 141.668 136.049 138.744 135.999 135.677C135.857 126.788 135.783 115.836 135.783 114.584C135.781 111.539 136.22 108.51 137.086 105.591L137.082 105.59C137.593 104.124 138.211 102.698 138.93 101.322C136.723 104.26 134.966 107.51 133.718 110.965L133.723 110.966C132.857 113.886 132.418 116.915 132.42 119.96C132.42 121.212 132.493 132.164 132.636 141.053C132.686 144.12 133.94 147.044 136.13 149.195C138.319 151.346 141.267 152.552 144.337 152.551C146.869 152.55 149.333 151.73 151.358 150.213C153.384 148.695 154.862 146.563 155.572 144.135C153.42 146.095 150.612 147.179 147.701 147.175Z" fill="#3F3D56"/>
<path d="M42.5616 195.741L46.6848 195.741L48.6467 179.852L42.5605 179.853L42.5616 195.741Z" fill="#FFB8B8"/>
<path d="M54.6375 199.565L41.6778 199.566L41.6776 194.564L49.6301 194.564C50.9581 194.564 52.2317 195.091 53.1707 196.028C54.1098 196.966 54.6374 198.239 54.6375 199.565Z" fill="#2F2E41"/>
<path d="M27.7622 195.741L31.8855 195.741L33.8474 179.852L27.7612 179.853L27.7622 195.741Z" fill="#FFB8B8"/>
<path d="M39.8384 199.565L26.8788 199.566L26.8785 194.564L34.831 194.564C36.159 194.564 37.4326 195.091 38.3717 196.028C39.3107 196.966 39.8383 198.239 39.8384 199.565Z" fill="#2F2E41"/>
<path d="M31.3658 190.854L27.338 190.643C27.1303 190.632 26.9269 190.58 26.7394 190.49C26.552 190.4 26.3843 190.274 26.2461 190.118C26.1078 189.963 26.0018 189.782 25.9342 189.586C25.8665 189.389 25.8385 189.181 25.8519 188.974L30.6659 135.731L52.8347 141.707L54.9706 141.125L48.2914 188.259C48.2345 188.614 48.0582 188.938 47.7917 189.179C47.5252 189.42 47.1843 189.563 46.8255 189.584L42.4837 189.786C42.2666 189.798 42.0493 189.765 41.8457 189.689C41.642 189.613 41.4564 189.496 41.3005 189.344C41.1446 189.193 41.0219 189.011 40.94 188.809C40.8582 188.608 40.819 188.392 40.825 188.175L41.6117 159.886C41.6154 159.755 41.5699 159.628 41.4842 159.529C41.3984 159.43 41.2787 159.367 41.1486 159.352C41.0185 159.336 40.8874 159.37 40.7812 159.447C40.6749 159.524 40.6013 159.637 40.5747 159.765L32.9878 189.605C32.9161 189.959 32.7238 190.277 32.4436 190.506C32.1633 190.734 31.8125 190.858 31.4509 190.857C31.4227 190.857 31.3943 190.856 31.3658 190.854Z" fill="#2F2E41"/>
<path d="M43.3018 92.1678C47.8642 92.1678 51.5627 88.4732 51.5627 83.9156C51.5627 79.3581 47.8642 75.6635 43.3018 75.6635C38.7393 75.6635 35.0408 79.3581 35.0408 83.9156C35.0408 88.4732 38.7393 92.1678 43.3018 92.1678Z" fill="#FFB8B8"/>
<path d="M29.5477 108.16L30.456 127.737L30.7844 134.86C30.7975 135.17 30.9028 135.469 31.087 135.719C31.2712 135.969 31.5259 136.158 31.8184 136.262L53.1212 143.971C53.2932 144.035 53.4756 144.067 53.6592 144.065C53.869 144.066 54.0769 144.025 54.2704 143.944C54.4639 143.863 54.6391 143.744 54.7855 143.594C54.9319 143.444 55.0465 143.266 55.1225 143.07C55.1985 142.875 55.2343 142.666 55.2278 142.457L54.3544 107.256C54.297 104.368 53.2328 101.591 51.3452 99.4025C49.4575 97.2143 46.8648 95.7526 44.0139 95.2692C43.8079 95.2378 43.5982 95.2064 43.3886 95.1785C41.6208 94.9593 39.8264 95.1297 38.1316 95.6777C36.4369 96.2258 34.8829 97.1381 33.5791 98.3506C32.229 99.591 31.1681 101.113 30.4715 102.808C29.7749 104.503 29.4595 106.33 29.5477 108.16Z" fill="#CCCCCC"/>
<path d="M63.2976 140.065C62.7938 139.909 62.3334 139.637 61.9534 139.271C61.5733 138.906 61.284 138.457 61.1086 137.96C60.9331 137.463 60.8764 136.932 60.943 136.409C61.0095 135.886 61.1975 135.386 61.4918 134.949L54.2678 125.353L60.5017 124.968L66.4061 134.139C67.0382 134.627 67.478 135.322 67.6484 136.102C67.8189 136.882 67.7091 137.696 67.3382 138.403C66.9674 139.11 66.3592 139.664 65.6204 139.968C64.8815 140.272 64.0592 140.306 63.2976 140.065Z" fill="#FFB8B8"/>
<path d="M58.2182 133.212C58.0269 133.135 57.8528 133.02 57.7061 132.875C57.5594 132.73 57.443 132.557 57.3636 132.366L46.48 106.464C46.2665 105.956 46.1551 105.412 46.1522 104.862C46.1493 104.312 46.2549 103.766 46.4631 103.257C46.6713 102.748 46.9779 102.284 47.3655 101.893C47.753 101.502 48.2139 101.192 48.7218 100.979C49.2296 100.766 49.7745 100.655 50.3253 100.652C50.876 100.65 51.4219 100.756 51.9317 100.964C52.4414 101.173 52.9051 101.479 53.2961 101.867C53.6872 102.254 53.9979 102.715 54.2107 103.222L65.0942 129.125C65.2551 129.509 65.2569 129.941 65.0992 130.327C64.9416 130.712 64.6373 131.019 64.2532 131.181L59.4215 133.207C59.2313 133.287 59.027 133.329 58.8204 133.33C58.6139 133.331 58.4092 133.291 58.2182 133.212Z" fill="#CCCCCC"/>
<path d="M40.6458 132.299L51.0991 112.305C51.3007 111.92 51.6467 111.631 52.0613 111.501C52.4759 111.371 52.9252 111.411 53.3106 111.611L68.4836 119.527C68.8685 119.728 69.1578 120.074 69.2879 120.488C69.418 120.902 69.3783 121.351 69.1776 121.736L58.7243 141.73C58.5227 142.115 58.1766 142.404 57.762 142.534C57.3475 142.664 56.8982 142.624 56.5128 142.424L41.3398 134.508C40.9549 134.306 40.6656 133.961 40.5355 133.547C40.4054 133.132 40.445 132.684 40.6458 132.299Z" fill="#3F3D56"/>
<path d="M47.6562 123.164C47.4704 122.671 47.1717 122.228 46.7841 121.87C46.3964 121.513 45.9305 121.251 45.4234 121.105C44.9164 120.96 44.3824 120.935 43.8639 121.032C43.3454 121.129 42.8568 121.346 42.4372 121.665L32.4213 115.028L32.4043 121.267L41.9181 126.614C42.4433 127.215 43.1637 127.613 43.953 127.737C44.7423 127.86 45.55 127.703 46.2346 127.291C46.9192 126.88 47.4369 126.241 47.6968 125.486C47.9567 124.731 47.9424 123.909 47.6562 123.164Z" fill="#FFB8B8"/>
<path d="M34.9929 124.567L26.8073 118.09C25.9218 117.793 25.1216 117.286 24.4756 116.612C23.8295 115.938 23.3568 115.117 23.098 114.221C22.8392 113.324 22.8021 112.378 22.9899 111.464C23.1776 110.55 23.5846 109.695 24.1759 108.973L31.6082 99.2428C32.1247 98.6123 32.851 98.1886 33.6545 98.0491C34.458 97.9095 35.2849 98.0635 35.9841 98.4828C36.6833 98.9022 37.208 99.5589 37.4624 100.333C37.7169 101.107 37.6839 101.946 37.3697 102.698L31.4891 112.307L40.1311 116.402C40.3321 116.497 40.5105 116.634 40.6547 116.803C40.7988 116.972 40.9054 117.17 40.9673 117.384C41.0292 117.597 41.0451 117.821 41.0139 118.041C40.9827 118.261 40.9052 118.472 40.7864 118.66L37.2979 124.175C37.1799 124.361 37.0242 124.52 36.8407 124.642C36.6572 124.764 36.4501 124.847 36.2328 124.884C36.2241 124.885 36.2154 124.887 36.2068 124.888C35.9932 124.92 35.7753 124.908 35.5665 124.853C35.3577 124.798 35.1625 124.701 34.9929 124.567Z" fill="#CCCCCC"/>
<path d="M37.0595 89.4414C37.024 89.3379 37.0128 89.2276 37.0266 89.119C37.0404 89.0104 37.079 88.9064 37.1392 88.815C37.1995 88.7235 37.2799 88.6471 37.3743 88.5915C37.4687 88.5359 37.5746 88.5027 37.6839 88.4943C37.9076 88.5064 38.1266 88.5638 38.3275 88.6628C38.5285 88.7618 38.7072 88.9005 38.853 89.0705C39.152 89.4148 39.5 89.7134 39.886 89.9565C40.2856 90.1577 40.8276 90.1291 41.0554 89.7454C41.2694 89.3852 41.1228 88.9028 40.9933 88.4843C40.6637 87.4197 40.4793 86.3156 40.445 85.2017C40.4077 83.9585 40.5833 82.661 41.2724 81.6913C42.1616 80.4398 43.7517 79.9647 45.2565 79.9992C46.7613 80.0336 48.2417 80.4977 49.7323 80.791C50.2469 80.8923 50.8517 80.944 51.1959 80.5456C51.5619 80.122 51.4275 79.4364 51.2718 78.8644C50.8679 77.3802 50.4394 75.8457 49.5009 74.6471C48.4861 73.4015 47.0366 72.5863 45.4443 72.3657C43.9155 72.1765 42.3637 72.3525 40.9163 72.8792C38.5581 73.6216 36.4831 75.0656 34.9687 77.0181C33.4076 79.0944 32.7331 81.7037 33.0926 84.2754C33.4437 86.5153 34.6319 88.5389 36.4176 89.9384L37.0595 89.4414Z" fill="#2F2E41"/>
<path d="M141.688 195.806C139.49 194.85 137.545 193.397 136.006 191.561C134.466 189.725 133.375 187.557 132.819 185.228C132.262 182.898 132.255 180.472 132.797 178.139C133.34 175.807 134.418 173.632 135.947 171.787C134.175 173.079 132.698 174.733 131.615 176.639C130.532 178.545 129.867 180.66 129.665 182.842C129.462 185.024 129.727 187.224 130.44 189.297C131.154 191.369 132.301 193.266 133.805 194.862C135.309 196.458 137.135 197.716 139.163 198.552C141.191 199.389 143.373 199.785 145.566 199.715C147.759 199.645 149.912 199.109 151.881 198.144C153.851 197.179 155.593 195.807 156.991 194.118C154.811 195.71 152.25 196.704 149.565 197C146.88 197.297 144.164 196.885 141.688 195.806Z" fill="#3F3D56"/>
</g>
<defs>
<clipPath id="clip0_68_1052">
<rect width="284.103" height="200" fill="white"/>
</clipPath>
</defs>
</svg>
