<svg width="6" height="10" viewBox="0 0 6 10" fill="none" xmlns="http://www.w3.org/2000/svg">
<path d="M6 4.99712C6 4.85319 5.93865 4.72078 5.82209 4.61715L0.963188 0.149683C0.85276 0.0518134 0.717793 0 0.558282 0C0.245399 0 0 0.224525 0 0.523892C0 0.667816 0.0613497 0.800229 0.159509 0.898101L4.62577 4.99712L0.159509 9.09614C0.0613497 9.19401 0 9.32063 0 9.47037C0 9.76973 0.245399 9.99422 0.558282 9.99422C0.717793 9.99422 0.85276 9.9424 0.963188 9.83883L5.82209 5.37708C5.93865 5.2677 6 5.14104 6 4.99712Z" fill="#B1B1B1"/>
</svg>
