<svg width="107" height="109" viewBox="0 0 107 109" fill="none" xmlns="http://www.w3.org/2000/svg">
<g clip-path="url(#clip0_5_1946)">
<path d="M97.0608 72.0659L95.0843 73.0306L90.4636 65.7806L93.3809 64.3568L97.0608 72.0659Z" fill="#FFB6B6"/>
<path d="M98.1259 74.1168L92.0477 77.0835L92.0106 77.0058C91.7078 76.3714 91.6666 75.6413 91.8961 74.9761C92.1255 74.3109 92.6069 73.7652 93.2343 73.4589L93.9381 72.0652L96.4162 71.9058L96.9468 71.6468L98.1259 74.1168Z" fill="#2F2E41"/>
<path d="M82.3481 74.7684L80.1536 74.7682L79.1094 66.208L82.3486 66.2082L82.3481 74.7684Z" fill="#FFB6B6"/>
<path d="M82.4255 77.0835L75.6763 77.0833V76.997C75.6764 76.2925 75.9532 75.6169 76.4458 75.1187C76.9385 74.6206 77.6066 74.3407 78.3033 74.3407H78.3035L79.5363 73.395L81.8365 74.3408L82.4257 74.3409L82.4255 77.0835Z" fill="#2F2E41"/>
<path d="M80.1731 35.0675L77.6581 52.6047L77.4444 56.5466L78.7633 68.8473L78.2279 70.0391L79.7238 70.972H82.7677L82.9292 57.9784L85.2118 47.096L85.5648 59.4304L86.0535 60.3835C87.8738 64.5595 90.3258 65.9268 92.0593 69.0482L95.1033 67.381L95.0395 66.1376C95.651 65.8245 94.1213 64.9095 93.9743 64.2325L93.7081 63.0205L91.9324 59.3012L91.8647 57.9914L92.3507 49.083L92.122 37.0866L88.1292 33.9993L80.1731 35.0675Z" fill="#2F2E41"/>
<path d="M83.9979 10.2051C81.8138 10.2051 80.0432 8.41476 80.0432 6.20625C80.0432 3.99773 81.8138 2.20738 83.9979 2.20738C86.1821 2.20738 87.9526 3.99773 87.9526 6.20625C87.9526 8.41476 86.1821 10.2051 83.9979 10.2051Z" fill="#FFB6B6"/>
<path d="M83.4539 38.304C88.6675 38.3041 92.5784 36.3185 92.6319 36.2908L92.6782 36.2668L92.664 36.2162C92.524 35.7205 92.3914 34.889 92.6313 34.7678C92.6572 34.7578 92.6801 34.7413 92.6979 34.72C92.7158 34.6987 92.7281 34.6731 92.7336 34.6457C92.7473 34.5461 92.6487 34.455 92.5121 34.3289C92.2471 34.0841 91.884 33.7489 92.0969 33.2108C92.4723 32.262 91.4169 27.4 91.3486 27.0883L91.7994 19.3383C91.8816 17.8597 91.4577 16.3975 90.5991 15.1976C89.7405 13.9978 88.4996 13.1334 87.0849 12.7498L87.0749 12.7472L87.0645 12.7478C86.9179 12.7562 86.7627 12.2528 86.645 11.8845C86.4711 11.34 86.3563 11.0055 86.1604 11.0197C84.6439 11.1186 83.6334 11.1833 82.96 11.2256C81.6833 11.3058 81.4596 12.876 81.4321 13.1267C80.0578 13.9735 78.9831 15.2375 78.3613 16.7384C77.7395 18.2393 77.6023 19.9004 77.9694 21.4848L78.6057 24.2517L79.168 25.5811L78.9827 28.2038C78.1105 28.9372 78.3604 30.4375 78.4101 30.691C77.579 31.5604 78.0894 32.5836 78.2132 32.8002C78.0004 33.0631 77.8557 33.3753 77.7919 33.7087C77.7281 34.0422 77.7473 34.3865 77.8477 34.7106L77.0823 37.2261L77.14 37.2464C79.1709 37.9554 81.3054 38.3129 83.4539 38.304Z" fill="#3F3D56"/>
<path d="M58.9531 12.0557C59.0908 11.8757 59.2659 11.7284 59.466 11.6242C59.6662 11.52 59.8864 11.4615 60.1114 11.4527C60.3363 11.4439 60.5603 11.4851 60.7678 11.5734C60.9753 11.6616 61.1611 11.7948 61.3121 11.9635L73.817 12.0324L77.3699 13.7679L77.8307 15.7571L72.0898 15.5144L61.1319 14.2489C60.8348 14.4867 60.4617 14.606 60.0833 14.5843C59.705 14.5625 59.3477 14.4012 59.0791 14.1308C58.8105 13.8605 58.6494 13.4999 58.6262 13.1175C58.6029 12.735 58.7192 12.3572 58.9531 12.0557Z" fill="#FFB6B6"/>
<path d="M73.0043 16.2144L77.8719 18.5427L82.3845 16.6325L82.3891 16.5956C82.4741 15.9207 82.3569 15.2355 82.0527 14.6286C81.7484 14.0218 81.2711 13.5211 80.6825 13.1915C79.7408 12.6607 78.7142 12.3013 77.6495 12.1297C74.6645 11.6807 74.059 11.5083 74.0533 11.5065L73.9876 11.4873L73.0043 16.2144Z" fill="#3F3D56"/>
<path d="M87.3513 8.71978C87.4001 8.71998 87.4486 8.71207 87.4949 8.69636C87.6766 8.61583 87.8285 8.47931 87.9289 8.30629C88.6299 7.28692 88.9683 5.92783 88.9347 4.26672C88.9206 3.56398 88.8419 2.66547 88.3552 1.94926C87.9459 1.34702 87.118 0.86909 86.3464 1.10899C86.3551 0.952977 86.3209 0.79756 86.2474 0.660081C86.1739 0.522602 86.0641 0.40847 85.9302 0.330415C85.6346 0.176824 85.3082 0.0934464 84.9758 0.0866258C84.1922 0.0123557 83.382 -0.0644187 82.5885 0.0876255C81.6988 0.258271 80.9713 0.721989 80.5926 1.35986L80.5848 1.3799L80.5078 1.75788C80.4975 1.8087 80.4764 1.85664 80.446 1.89841C80.4155 1.94018 80.3765 1.97479 80.3316 1.99985C80.2867 2.0249 80.2369 2.03982 80.1857 2.04356C80.1346 2.0473 80.0832 2.03978 80.0352 2.02152C79.9828 2.00157 79.9261 1.99579 79.8708 2.00474C79.8155 2.01369 79.7635 2.03706 79.7198 2.07256C79.6762 2.10805 79.6425 2.15444 79.622 2.20715C79.6015 2.25985 79.5949 2.31704 79.603 2.37309L79.6245 2.52345L79.4006 2.48111C79.3447 2.47055 79.2869 2.47518 79.2332 2.49455C79.1796 2.51391 79.132 2.5473 79.0953 2.59132C79.0585 2.63534 79.034 2.68842 79.0242 2.74515C79.0143 2.80188 79.0196 2.86023 79.0393 2.91426L79.1025 3.08716C79.0562 3.08746 79.0104 3.09735 78.9681 3.11622C78.9257 3.13509 78.8876 3.16254 78.8561 3.19688C78.8108 3.2461 78.7823 3.30867 78.7747 3.37545C78.7671 3.44223 78.7808 3.50971 78.8139 3.56804C79.0639 4.00052 79.4188 4.36151 79.8449 4.61703C80.0778 4.7587 80.3325 4.85998 80.5984 4.91667C82.3242 5.29326 84.1036 5.34736 85.8486 5.0763C85.7453 5.42432 85.7055 5.78846 85.7312 6.15089C85.7464 6.35644 85.8169 6.55387 85.935 6.72181C86.0532 6.88975 86.2146 7.02179 86.4016 7.10363C86.4816 7.12995 86.5636 7.14992 86.6466 7.16337C86.7261 7.17588 86.8043 7.19511 86.8806 7.22086C86.9936 7.26283 87.0936 7.33419 87.1706 7.42775C87.2477 7.5213 87.2989 7.63374 87.3192 7.75373C87.3396 7.87371 87.3282 7.99699 87.2864 8.11113C87.2446 8.22528 87.1737 8.32625 87.081 8.40386L86.9077 8.22125L86.9641 8.45339C86.9758 8.49859 86.9968 8.54077 87.0258 8.5772C87.0547 8.61364 87.0909 8.64351 87.132 8.66487C87.1995 8.70126 87.2748 8.72013 87.3513 8.71978Z" fill="#2F2E41"/>
<path d="M60.8685 57.4565C48.395 57.4565 38.2833 47.3879 38.2833 34.9677C38.2833 22.5475 48.395 12.4789 60.8685 12.4789C73.342 12.4789 83.4537 22.5475 83.4537 34.9677C83.4537 47.3879 73.342 57.4565 60.8685 57.4565Z" fill="#E6E6E6"/>
<path d="M42.1551 34.9677C42.1521 37.6644 42.7377 40.3286 43.8701 42.7701C43.9048 42.8454 43.9408 42.9207 43.9768 42.996C45.7085 46.583 48.5221 49.5212 52.0119 51.3869C52.0851 51.4258 52.1583 51.4646 52.2316 51.5023C54.9042 52.8875 57.8653 53.6072 60.8685 53.6016C61.9103 53.6019 62.9503 53.5163 63.9783 53.3456C64.0602 53.3318 64.1422 53.318 64.2228 53.3029C68.0694 52.6109 71.6063 50.722 74.3402 47.8997C74.3973 47.8408 74.4544 47.7805 74.5127 47.7203C77.1311 44.9564 78.8354 41.4379 79.3897 37.6517C79.4008 37.5689 79.4132 37.4861 79.4232 37.4033C79.929 33.5537 79.2198 29.6409 77.3967 26.223C77.3582 26.1489 77.3173 26.0749 77.2776 26.0021C75.8734 23.4666 73.9077 21.2943 71.5345 19.6553C71.4662 19.6076 71.398 19.5612 71.3297 19.5148C69.0366 17.9729 66.4362 16.9598 63.7128 16.5471C63.6309 16.5358 63.549 16.5233 63.4671 16.512C62.6059 16.3929 61.7377 16.3333 60.8685 16.3338C58.1315 16.3293 55.4262 16.9266 52.9401 18.0843C52.8644 18.1194 52.79 18.1546 52.7155 18.1909C50.3902 19.3128 48.3189 20.9079 46.6312 22.8764C46.5766 22.9391 46.522 23.0031 46.4698 23.0671C44.4299 25.5016 43.0504 28.4302 42.4666 31.5659V31.5672C42.4504 31.6487 42.4368 31.7303 42.4231 31.8131C42.2443 32.8549 42.1547 33.9103 42.1551 34.9677Z" fill="white"/>
<path d="M59.0208 33.5512C58.7632 33.874 58.596 34.2608 58.5367 34.6712L49.5203 32.9516C49.8763 31.0134 50.7252 29.2023 51.9835 27.6965L59.0208 33.5512Z" fill="#EC603C"/>
<path d="M49.2371 33.1118C49.2483 33.029 49.2632 32.9475 49.278 32.8659V32.8646C49.6414 30.8847 50.5079 29.0344 51.7922 27.4953C51.8456 27.4313 51.9002 27.3674 51.9548 27.3059C52.99 26.1131 54.2496 25.1406 55.6602 24.4449H55.6615C55.7359 24.4085 55.8091 24.3721 55.8848 24.337C57.9538 23.3762 60.2513 23.0336 62.5065 23.3495C62.5884 23.3595 62.6703 23.372 62.7522 23.3858C64.3864 23.6473 65.9478 24.2536 67.3351 25.1652C67.4046 25.2103 67.474 25.2568 67.5423 25.3044C69.0656 26.3487 70.3247 27.7405 71.218 29.3675C71.2577 29.4403 71.2974 29.5143 71.3371 29.5896C72.4528 31.7369 72.8722 34.1847 72.5359 36.5864C72.5259 36.6705 72.5135 36.7533 72.4986 36.8349C72.123 39.1484 71.0635 41.2928 69.4596 42.9859C69.4037 43.0462 69.3466 43.1064 69.2871 43.1654C67.5987 44.8862 65.4324 46.0469 63.0761 46.4931C62.9942 46.5094 62.9123 46.5232 62.8304 46.537C60.3194 46.9584 57.7409 46.5584 55.4704 45.3952C55.3972 45.3575 55.3252 45.3186 55.252 45.2785H55.2507C53.1041 44.1172 51.3674 42.3103 50.2807 40.1074C50.2435 40.0321 50.2075 39.9568 50.1728 39.8815C49.1922 37.7722 48.866 35.4122 49.2371 33.1118ZM50.3986 39.7774C50.4334 39.8539 50.4694 39.9292 50.5066 40.0032C51.5714 42.1559 53.2701 43.9217 55.3686 45.0576C55.4418 45.0965 55.515 45.1354 55.5883 45.173C57.8092 46.3116 60.332 46.7025 62.7882 46.2886C62.8701 46.276 62.9533 46.2622 63.0339 46.2459C65.3365 45.8092 67.4536 44.6754 69.1046 42.9947C69.1642 42.9357 69.2213 42.8755 69.2784 42.8153C70.8456 41.1602 71.8824 39.0653 72.2529 36.8047C72.2666 36.7232 72.279 36.6404 72.2902 36.5575C72.619 34.2077 72.2092 31.8128 71.1187 29.7113C71.0815 29.6373 71.0418 29.5633 71.0008 29.4892C70.125 27.895 68.8905 26.5315 67.3971 25.509C67.3289 25.4613 67.2606 25.4149 67.1911 25.371C65.8363 24.4823 64.3123 23.8907 62.7175 23.6343C62.6368 23.6205 62.5549 23.6079 62.4718 23.5979C60.2647 23.2888 58.0162 23.6245 55.9916 24.5654C55.9159 24.5992 55.8414 24.6356 55.7682 24.672C54.3896 25.351 53.1582 26.3005 52.1459 27.4652C52.0913 27.528 52.0367 27.592 51.9845 27.656C50.7262 29.1618 49.8773 30.9729 49.5213 32.9111C49.5064 32.9927 49.4927 33.0742 49.4803 33.1583C49.1199 35.4078 49.44 37.715 50.3986 39.7774Z" fill="#CCCCCC"/>
<path d="M61.731 33.0955L61.9332 33.2411L67.3971 25.509L67.5423 25.3044L71.5344 19.6553C71.4662 19.6076 71.3979 19.5612 71.3297 19.5148L67.3351 25.1652L67.1911 25.3709L61.731 33.0955Z" fill="#CCCCCC"/>
<path d="M62.7076 34.0956L62.828 34.3165L71.1188 29.7113L71.3372 29.5896L77.3967 26.223C77.3583 26.1489 77.3173 26.0749 77.2776 26.0021L71.2181 29.3675L71.0009 29.4892L62.7076 34.0956Z" fill="#CCCCCC"/>
<path d="M62.8131 35.6855L72.253 36.8048L72.4987 36.8349L79.3897 37.6517C79.4009 37.5689 79.4133 37.4861 79.4232 37.4033L72.536 36.5864L72.2903 36.5576L62.8417 35.437L62.8131 35.6855Z" fill="#CCCCCC"/>
<path d="M62.2037 36.5287L69.1047 42.9947L69.2871 43.1654L74.3402 47.8997C74.3973 47.8408 74.4544 47.7805 74.5127 47.7203L69.4596 42.9859L69.2784 42.8153L62.3725 36.3442L62.2037 36.5287Z" fill="#CCCCCC"/>
<path d="M52.7155 18.1909L55.6602 24.4449H55.6615L55.7682 24.672L59.7938 33.2223L60.0172 33.1144L55.9916 24.5654L55.8849 24.337L52.9401 18.0843C52.8644 18.1194 52.7899 18.1546 52.7155 18.1909Z" fill="#CCCCCC"/>
<path d="M46.4698 23.0671L51.7922 27.4953L51.9846 27.656L59.2602 33.7091L59.4178 33.5159L52.1459 27.4652L51.9548 27.3059L46.6311 22.8764C46.5765 22.9391 46.5219 23.0031 46.4698 23.0671Z" fill="#CCCCCC"/>
<path d="M42.4231 31.8131L49.2371 33.1118L49.4803 33.1583L58.8048 34.9363L58.8507 34.6904L49.5213 32.9111L49.2781 32.8659V32.8646L42.4665 31.5672C42.4504 31.6487 42.4367 31.7303 42.4231 31.8131Z" fill="#CCCCCC"/>
<path d="M43.87 42.7701C43.9048 42.8454 43.9408 42.9207 43.9768 42.996L50.2808 40.1074L50.5066 40.0032L59.0208 36.102L58.9178 35.8737L50.3987 39.7774L50.1728 39.8815L43.87 42.7701Z" fill="#CCCCCC"/>
<path d="M52.0119 51.3869C52.0851 51.4258 52.1583 51.4646 52.2316 51.5023L55.4704 45.3952L55.5883 45.173L60.0148 36.8261L59.7964 36.7081L55.3687 45.0576L55.252 45.2785H55.2508L52.0119 51.3869Z" fill="#CCCCCC"/>
<path d="M61.2284 37.0281L62.7882 46.2886L62.8304 46.537L63.9783 53.3456C64.0602 53.3318 64.1421 53.318 64.2228 53.3029L63.0761 46.4931L63.0339 46.2459L61.4741 36.9854L61.2284 37.0281Z" fill="#CCCCCC"/>
<path d="M61.1577 32.9525L61.4034 32.9876L62.7175 23.6343L62.7523 23.3859L63.7128 16.5472C63.6309 16.5359 63.549 16.5233 63.4671 16.512L62.5066 23.3495L62.4718 23.5979L61.1577 32.9525Z" fill="#CCCCCC"/>
<path d="M60.8685 37.3154C59.5663 37.3154 58.5107 36.2643 58.5107 34.9677C58.5107 33.6711 59.5663 32.62 60.8685 32.62C62.1707 32.62 63.2263 33.6711 63.2263 34.9677C63.2263 36.2643 62.1707 37.3154 60.8685 37.3154Z" fill="#3F3D56"/>
<path d="M12.3663 100.599L14.1311 102.093L20.6709 95.9211L18.0662 93.7157L12.3663 100.599Z" fill="#A0616A"/>
<path d="M10.7624 102.408L16.1894 107.003L16.2469 106.934C16.716 106.367 16.9433 105.635 16.8789 104.899C16.8145 104.163 16.4636 103.484 15.9034 103.009L15.9033 103.009L15.5418 101.409L13.0624 100.604L12.5887 100.203L10.7624 102.408Z" fill="#2F2E41"/>
<path d="M28.1342 106.297L30.4357 106.297L31.5309 97.3192L28.1335 97.3193L28.1342 106.297Z" fill="#A0616A"/>
<path d="M28.053 108.725L35.1313 108.725V108.634C35.1313 107.895 34.841 107.187 34.3243 106.664C33.8077 106.142 33.1069 105.848 32.3763 105.848L31.0831 104.857L28.6708 105.849L28.0529 105.849L28.053 108.725Z" fill="#2F2E41"/>
<path d="M22.3769 63.3354C21.8209 64.0382 22.0989 66.4278 22.0989 66.4278L21.9625 81.3094C19.5994 83.2773 17.7896 91.4476 17.7896 91.4476L15.5332 95.6454C15.8112 96.4887 17.6148 99.7867 18.1709 99.6461C18.4289 99.5809 21.6403 96.5861 23.776 92.1447C26.243 87.0143 27.6592 80.3433 27.6592 80.3433C27.6592 80.3433 27.3812 99.4596 27.3812 100.303C27.3812 101.146 31.1344 100.725 31.9685 100.725C32.8025 100.725 37.0957 66.2872 37.0957 66.2872V64.3193L36.4007 63.3354C36.4007 63.3354 22.9329 62.6326 22.3769 63.3354Z" fill="#2F2E41"/>
<path d="M52.2589 31.5612L53.9446 32.3567L52.066 31.9589C52.066 31.9589 50.6855 32.0158 50.6855 31.4476L48.4379 30.1976C48.4379 30.1976 46.5274 31.2203 45.9655 30.6521C45.4036 30.0839 46.4151 28.9476 46.4151 28.9476C46.4151 28.9476 45.738 28.57 45.7956 28.4179C45.8531 28.2658 46.7522 28.493 46.7522 28.493C46.7522 28.493 48.8874 27.243 48.7751 29.4021L51.0227 30.9089C51.0227 30.9089 52.1465 30.8794 52.2589 31.5612Z" fill="#3F3D56"/>
<path d="M21.6046 68.2017C24.5547 69.6817 28.065 70.1293 31.3715 69.7363C34.222 69.397 34.8147 66.1766 37.4604 65.034C36.6243 62.605 36.6143 59.3805 36.7556 58.4756C36.9973 56.9304 37.0422 46.1608 36.1568 45.0393C34.9955 43.5679 33.2228 42.7819 33.3034 40.9012L33.055 41.1591C33.3688 40.3242 32.7612 39.3685 31.9611 38.9908C31.161 38.6132 30.2368 38.6611 29.3551 38.7167C28.6129 38.7637 27.8707 38.8106 27.1284 38.8576C27.2255 39.164 27.249 39.4894 27.1969 39.8068C27.1448 40.1242 27.0186 40.4244 26.8288 40.6827C25.5131 40.3156 24.1252 41.2914 23.5375 42.5356C22.9498 43.7807 22.964 45.2176 22.9905 46.5969C23.0209 48.1929 21.8511 59.4013 23.2664 60.1106C22.5365 60.2965 21.5047 64.2328 22.1275 63.8063C21.8393 64.0104 21.9089 65.9165 21.6046 68.2017Z" fill="#EC603C"/>
<path d="M50.28 29.7063C49.9619 29.6117 49.6271 29.5889 49.2994 29.6393C48.9716 29.6897 48.6587 29.8122 48.3828 29.9981C48.1069 30.184 47.8747 30.4288 47.7025 30.7153C47.5302 31.0017 47.4222 31.3229 47.3861 31.6562L34.8692 42.7845L37.1293 44.3027L49.5527 34.226C50.1104 34.2503 50.6575 34.067 51.0905 33.7107C51.5234 33.3544 51.812 32.8499 51.9017 32.2928C51.9913 31.7357 51.8757 31.1646 51.5768 30.6879C51.278 30.2112 50.8165 29.862 50.28 29.7063Z" fill="#A0616A"/>
<path d="M36.8005 39.1946C37.0745 39.2105 43.5433 34.4377 43.7088 34.659L44.1435 37.043L45.3392 38.6419L42.7544 41.4125L42.0159 42.025L41.5412 42.5327C41.7072 42.7573 40.6048 43.961 40.5451 44.2357C40.5162 44.3702 40.4591 44.4968 40.3776 44.607C40.2961 44.7172 40.1921 44.8085 40.0727 44.8745L35.8666 47.1822C35.3058 47.6032 34.6029 47.7822 33.9118 47.6799C33.2208 47.5776 32.5981 47.2023 32.1802 46.6365C31.7623 46.0706 31.5834 45.3603 31.6827 44.6613C31.782 43.9622 32.1514 43.3315 32.7099 42.9075L33.3304 42.2729L34.2807 41.2991L36.0591 39.4779C36.155 39.3792 36.271 39.3028 36.399 39.2539C36.527 39.2049 36.664 39.1847 36.8005 39.1946Z" fill="#EC603C"/>
<path d="M29.8224 37.4563C27.3025 37.4563 25.2597 35.3907 25.2597 32.8426C25.2597 30.2946 27.3025 28.2289 29.8224 28.2289C32.3423 28.2289 34.3851 30.2946 34.3851 32.8426C34.3851 35.3907 32.3423 37.4563 29.8224 37.4563Z" fill="#A0616A"/>
<path d="M24.3795 31.3815C24.6332 30.3634 25.5797 29.4752 26.613 29.5782C26.4853 28.7938 27.0016 28.004 27.6976 27.6344C28.3936 27.2648 29.2249 27.2489 30.0007 27.3776C30.4512 27.4602 30.8973 27.5656 31.3374 27.6934C31.7108 27.795 33.4613 27.189 33.8322 27.2997C34.1493 27.3943 34.9125 28.5432 35.1533 28.7723C35.394 29.0015 35.5215 29.3873 35.3607 29.6794C35.2019 29.9679 34.8387 30.0618 34.5133 30.0888C34.1879 30.1158 33.8383 30.1111 33.5682 30.2966C33.2211 30.5349 33.1227 31.0102 33.1368 31.4342C33.151 31.8583 33.2471 32.2859 33.1688 32.7027C33.0905 33.1196 32.7569 33.5359 32.3383 33.5073C32.0249 33.1732 31.4524 33.1946 31.0928 33.4773C30.9209 33.6293 30.7836 33.817 30.6902 34.0276C30.5967 34.2383 30.5494 34.4668 30.5515 34.6977C30.5589 35.1588 30.6297 35.6166 30.7621 36.0579C30.8374 36.3626 30.8941 36.7319 30.671 36.9503C30.5395 37.0563 30.3813 37.123 30.2144 37.1431C29.5556 37.2846 27.0834 37.0927 26.4247 37.2342L26.4757 37.1324C25.9985 36.1999 25.3652 35.3556 24.8961 34.4189C24.4271 33.4822 24.1258 32.3996 24.3795 31.3815Z" fill="#2F2E41"/>
<path d="M17.3759 69.4859C17.6983 69.4078 17.9999 69.2592 18.2594 69.0506C18.5189 68.8419 18.7299 68.5782 18.8778 68.2781C19.0256 67.978 19.1065 67.6488 19.1149 67.3137C19.1232 66.9785 19.0588 66.6456 18.9262 66.3383L24.3055 50.3871L21.5979 50.2076L15.7821 65.1997C15.2864 65.4593 14.9021 65.8936 14.7019 66.4206C14.5018 66.9475 14.4998 67.5303 14.6962 68.0586C14.8927 68.587 15.274 69.0241 15.7678 69.2871C16.2617 69.5502 16.8339 69.6209 17.3759 69.4859Z" fill="#A0616A"/>
<path d="M25.5514 52.4724C25.3059 52.5965 22.0442 59.9916 21.7917 59.8829L20.2413 58.0339L18.4173 57.2489L19.2955 53.5449L19.6346 52.642L19.7966 51.9628C19.5419 51.8515 19.9057 50.2527 19.8223 49.9844C19.7812 49.8532 19.7684 49.7146 19.7848 49.578C19.8013 49.4414 19.8465 49.31 19.9176 49.1926L22.43 45.0743C22.7091 44.4269 23.2308 43.9179 23.8805 43.6588C24.5303 43.3997 25.2551 43.4118 25.8961 43.6923C26.537 43.9729 27.0418 44.499 27.2997 45.1553C27.5577 45.8116 27.5477 46.5446 27.2719 47.1934L27.0461 48.056L26.7011 49.379L26.0549 51.8535C26.0203 51.9874 25.9574 52.1121 25.8704 52.2189C25.7835 52.3258 25.6746 52.4123 25.5514 52.4724Z" fill="#EC603C"/>
<path d="M4.73665 106.085L6.00768 104.02L6.26157 105.2C6.30608 105.407 6.35059 105.617 6.3918 105.825C6.75282 105.514 7.13695 105.225 7.51279 104.948C8.66678 104.102 9.82023 103.254 10.9731 102.405L10.6121 104.522C10.3895 105.825 10.1571 107.156 9.60648 108.347C9.54547 108.482 9.47955 108.616 9.40863 108.746H4.04423C4.00108 108.625 3.97122 108.5 3.9552 108.372C3.95386 108.364 3.95332 108.356 3.95359 108.347C3.86946 107.539 4.31131 106.777 4.73665 106.085Z" fill="#F0F0F0"/>
<path d="M0.196323 108.949L45.6553 109C45.7073 109 45.7573 108.979 45.7941 108.942C45.8309 108.905 45.8516 108.854 45.8516 108.801C45.8516 108.749 45.8309 108.698 45.7941 108.661C45.7573 108.624 45.7073 108.603 45.6553 108.603L0.196323 108.552C0.170502 108.552 0.144913 108.557 0.121033 108.567C0.0971489 108.577 0.0754471 108.591 0.0571594 108.61C0.0388718 108.628 0.024353 108.65 0.0144539 108.674C0.00455475 108.698 -0.000537872 108.724 -0.000537872 108.75C-0.000537872 108.776 0.00455475 108.802 0.0144539 108.826C0.024353 108.85 0.0388718 108.872 0.0571594 108.891C0.0754471 108.909 0.0971489 108.924 0.121033 108.934C0.144913 108.944 0.170502 108.949 0.196323 108.949Z" fill="#CACACA"/>
<path d="M65.8851 74.3341L67.1561 72.2688L67.41 73.449C67.4545 73.6557 67.499 73.8657 67.5402 74.0741C67.9013 73.7624 68.2854 73.474 68.6612 73.1973C69.8152 72.3505 70.9687 71.5025 72.1216 70.6535L71.7606 72.7705C71.538 74.0741 71.3055 75.4044 70.7549 76.5962C70.6939 76.7313 70.628 76.8646 70.5571 76.9947H65.1927C65.1495 76.8739 65.1197 76.7486 65.1036 76.6212C65.1023 76.613 65.1018 76.6046 65.102 76.5962C65.0179 75.7877 65.4598 75.0259 65.8851 74.3341Z" fill="#F0F0F0"/>
<path d="M61.3447 77.1976L106.804 77.2488C106.856 77.2487 106.905 77.2277 106.942 77.1905C106.979 77.1533 106.999 77.1029 106.999 77.0503C106.999 76.9978 106.979 76.9474 106.942 76.9102C106.905 76.873 106.856 76.852 106.804 76.8519L61.3447 76.8006C61.3189 76.8006 61.2933 76.8056 61.2694 76.8156C61.2455 76.8255 61.2238 76.8401 61.2056 76.8586C61.1873 76.877 61.1728 76.8989 61.1628 76.923C61.153 76.9471 61.1479 76.973 61.1479 76.9991C61.1479 77.0252 61.153 77.0511 61.1628 77.0752C61.1728 77.0993 61.1873 77.1212 61.2056 77.1397C61.2238 77.1581 61.2455 77.1727 61.2694 77.1827C61.2933 77.1926 61.3189 77.1977 61.3447 77.1976Z" fill="#CACACA"/>
<path d="M82.3698 38.8742C82.5838 38.8039 82.78 38.6869 82.9446 38.5316C83.1091 38.3763 83.238 38.1864 83.3221 37.9753C83.4062 37.7642 83.4435 37.537 83.4314 37.3097C83.4192 37.0825 83.358 36.8607 83.2519 36.6599L87.4093 24.7345L86.993 20.7669L85.2969 19.6568L83.5848 25.2029L81.0637 36.06C80.742 36.2625 80.5049 36.5773 80.3975 36.9448C80.29 37.3123 80.3195 37.7068 80.4805 38.0537C80.6415 38.4006 80.9228 38.6757 81.271 38.8269C81.6192 38.9782 82.0101 38.995 82.3698 38.8742Z" fill="#FFB6B6"/>
<path d="M89.6494 16.5938L85.7174 15.0549L83.4345 22.7498L88.704 24.4383L89.6494 16.5938Z" fill="#3F3D56"/>
</g>
<defs>
<clipPath id="clip0_5_1946">
<rect width="107" height="109" fill="white" transform="matrix(-1 0 0 1 107 0)"/>
</clipPath>
</defs>
</svg>
