<svg width="292" height="209" viewBox="0 0 292 209" fill="none" xmlns="http://www.w3.org/2000/svg">
<g clip-path="url(#clip0_67_953)">
<path d="M42.1484 179.699V180.24C42.1492 181.137 42.5084 181.997 43.1471 182.631C43.7859 183.265 44.6519 183.622 45.5552 183.622H74.445C75.3484 183.622 76.2147 183.266 76.8536 182.631C77.4924 181.997 77.8514 181.137 77.8518 180.24V179.699C77.8535 178.907 77.5735 178.14 77.0613 177.534C76.8908 177.332 76.6979 177.151 76.4863 176.993H61.5017C61.3211 176.993 61.1478 176.921 61.02 176.794C60.8923 176.668 60.8205 176.496 60.8204 176.316H45.5552C44.6521 176.317 43.7863 176.674 43.1477 177.308C42.509 177.942 42.1497 178.802 42.1484 179.699Z" fill="#3F3D56"/>
<path d="M58.0936 208.384H61.6367V183.488H58.0936V208.384Z" fill="#3F3D56"/>
<path d="M48.0094 208.26C48.0094 208.64 53.3784 208.407 60.0014 208.407C66.6243 208.407 71.9933 208.64 71.9933 208.26C71.9933 207.88 66.6243 204.866 60.0014 204.866C53.3784 204.866 48.0094 207.88 48.0094 208.26Z" fill="#3F3D56"/>
<path d="M47.7084 179.128L59.7984 181.044L73.8454 183.271L78.7158 184.042C79.1834 184.115 79.6611 184.001 80.0443 183.725C80.4274 183.449 80.6848 183.034 80.7599 182.57L80.9806 181.201L81.185 179.926L81.3539 178.876C81.3921 178.641 81.3819 178.401 81.3238 178.171C81.2657 177.94 81.161 177.723 81.016 177.534C80.8446 177.301 80.6168 177.115 80.3537 176.993H61.5018C61.3211 176.993 61.1479 176.921 61.0201 176.794C60.8923 176.668 60.8205 176.496 60.8204 176.316V175.783C60.8205 175.604 60.8923 175.432 61.0201 175.305C61.1479 175.178 61.3211 175.107 61.5018 175.107H68.9096L65.4946 174.565L54.9962 172.901L48.8667 171.93C48.398 171.856 47.919 171.97 47.5348 172.246C47.1506 172.523 46.8925 172.939 46.8172 173.404L46.223 177.095C46.1504 177.56 46.2658 178.035 46.5441 178.415C46.8223 178.796 47.2408 179.052 47.7084 179.128Z" fill="#A0616A"/>
<path d="M73.8453 178.614V199.236C73.846 199.706 74.0343 200.157 74.3689 200.489C74.7036 200.821 75.1572 201.008 75.6305 201.009H79.3998C79.873 201.008 80.3267 200.821 80.6614 200.489C80.996 200.157 81.1843 199.706 81.185 199.236V178.614C81.1856 178.222 81.0542 177.842 80.8116 177.534C80.632 177.297 80.3934 177.11 80.1193 176.993H74.9082C74.6354 177.111 74.3979 177.298 74.2188 177.534C73.9765 177.842 73.8451 178.222 73.8453 178.614Z" fill="#A0616A"/>
<path d="M62.4856 143.708C62.5048 143.892 62.5526 144.072 62.6274 144.242C62.7409 144.5 62.9157 144.728 63.137 144.905L63.1453 144.91L73.8999 153.572L74.0579 153.696L76.2847 155.491L76.9578 156.032H88.6036L87.9332 155.491L78.7293 148.076L72.5617 143.108L67.7622 139.244C67.4813 139.016 67.1369 138.88 66.7756 138.854C66.7741 138.852 66.7722 138.851 66.7701 138.851C66.6629 138.844 66.5553 138.845 66.4484 138.857C66.2885 138.873 66.1316 138.911 65.9824 138.97C65.8804 139.007 65.7833 139.056 65.6935 139.116C65.5241 139.219 65.3738 139.35 65.2493 139.503L62.9108 142.364L62.8754 142.41C62.7272 142.59 62.6164 142.797 62.5495 143.02C62.4826 143.243 62.4609 143.477 62.4856 143.708Z" fill="#A0616A"/>
<path d="M63.1452 144.91C63.3479 145.413 63.6427 145.875 64.0146 146.271L71.1744 153.908C71.3474 154.065 71.5501 154.188 71.7709 154.268C71.9916 154.347 72.2261 154.383 72.4608 154.373C72.6955 154.363 72.9258 154.306 73.1386 154.207C73.3514 154.109 73.5424 153.969 73.7007 153.797L73.8998 153.572L73.987 153.475L77.0804 150.03L78.4104 148.547C78.4988 148.455 78.5757 148.354 78.6393 148.244C78.672 148.19 78.702 148.133 78.7293 148.076C78.8408 147.823 78.8921 147.548 78.8791 147.272C78.8701 147.038 78.8135 146.807 78.7129 146.595C78.6122 146.382 78.4695 146.192 78.2932 146.036L69.9915 139.736C69.0754 139.039 67.9222 138.722 66.7755 138.854C66.7741 138.852 66.7721 138.851 66.77 138.851C66.5154 138.883 66.2638 138.935 66.0178 139.008C65.9088 139.038 65.8026 139.076 65.6934 139.116C64.9896 139.379 64.3656 139.817 63.881 140.388C63.3539 141.003 63.0066 141.75 62.8769 142.547C62.7472 143.344 62.84 144.161 63.1452 144.91Z" fill="#2F2E41"/>
<path d="M59.7456 132.565C67.2901 132.565 73.4061 126.492 73.4061 119.002C73.4061 111.511 67.2901 105.438 59.7456 105.438C52.2011 105.438 46.0851 111.511 46.0851 119.002C46.0851 126.492 52.2011 132.565 59.7456 132.565Z" fill="#A0616A"/>
<path d="M56.1081 177.258L61.1747 178.059L61.2893 178.078L68.9913 179.298L73.8454 180.069L80.9806 181.201L81.185 181.233L82.2451 181.401L87.1155 182.172C87.5831 182.245 88.0608 182.131 88.444 181.856C88.8272 181.58 89.0845 181.164 89.1596 180.7L89.5848 178.059L89.7538 177.009C89.7538 177.004 89.7565 176.998 89.7565 176.993H61.5018C61.3211 176.993 61.1478 176.921 61.0201 176.794C60.8923 176.668 60.8205 176.496 60.8204 176.316V175.783C60.8205 175.604 60.8923 175.432 61.0201 175.305C61.1478 175.178 61.3211 175.107 61.5018 175.107H70.4303V172.149L69.8852 172.062L67.1925 171.635L57.2638 170.063C56.7958 169.989 56.3174 170.102 55.9336 170.378C55.5499 170.654 55.2921 171.07 55.2169 171.535L54.9961 172.901L54.6227 175.228C54.5495 175.693 54.6648 176.167 54.9432 176.548C55.2216 176.928 55.6405 177.183 56.1081 177.258Z" fill="#A0616A"/>
<path d="M41.1536 165.276C41.1536 176.332 42.2847 182.946 59.7276 181.052C59.7521 181.049 59.7739 181.046 59.7984 181.044C62.9095 180.738 65.9863 180.154 68.9913 179.298C70.553 178.845 72.0707 178.255 73.5265 177.534C73.8698 177.361 74.1996 177.179 74.524 176.993H61.5018C61.3211 176.993 61.1478 176.921 61.0201 176.794C60.8923 176.668 60.8205 176.496 60.8204 176.316V175.783C60.8205 175.604 60.8923 175.432 61.0201 175.305C61.1478 175.178 61.3211 175.107 61.5018 175.107H70.4303V158.015C70.431 157.489 70.6418 156.985 71.0162 156.614C71.3907 156.242 71.8984 156.033 72.428 156.032H79.6914C79.6286 155.853 79.5661 155.672 79.4979 155.491C78.8165 153.618 78.0088 151.794 77.0804 150.03C75.8086 147.58 74.2949 145.261 72.5616 143.108C71.3547 141.607 69.9998 140.23 68.5171 138.997C65.7834 136.757 62.8073 135.371 59.7874 135.371C48.6513 135.371 41.1536 154.219 41.1536 165.276Z" fill="#2F2E41"/>
<path d="M59.4587 124.029L59.4445 123.522C60.3941 123.496 61.2314 123.436 61.8606 122.98C62.0389 122.843 62.1855 122.67 62.2904 122.472C62.3953 122.274 62.456 122.056 62.4684 121.832C62.4794 121.696 62.4586 121.559 62.4076 121.432C62.3566 121.304 62.2767 121.19 62.1741 121.099C61.7565 120.749 61.0845 120.862 60.5947 121.085L60.1723 121.277L60.9823 115.4L61.488 115.469L60.7991 120.468C61.0811 120.364 61.3848 120.332 61.6826 120.375C61.9803 120.417 62.2626 120.533 62.5037 120.712C62.6658 120.852 62.7931 121.028 62.8755 121.226C62.9578 121.423 62.9931 121.637 62.9785 121.85C62.9636 122.15 62.8828 122.444 62.7417 122.71C62.6006 122.975 62.4026 123.207 62.1617 123.389C61.3533 123.976 60.3028 124.005 59.4587 124.029Z" fill="#2F2E41"/>
<path d="M66.7386 115.9H63.9893V116.407H66.7386V115.9Z" fill="#2F2E41"/>
<path d="M58.0603 115.9H55.3109V116.407H58.0603V115.9Z" fill="#2F2E41"/>
<path d="M48.8434 115.275C49.9058 113.687 51.7752 113.014 53.6186 112.85C55.6936 112.666 57.6985 113.063 59.7243 113.449C61.9539 113.874 64.3135 114.272 66.56 113.735C67.5538 113.506 68.4824 113.057 69.2759 112.421C70.0694 111.784 70.707 110.977 71.1407 110.06C71.9632 108.272 72.1404 106.257 71.6425 104.354C71.0556 102.333 69.8639 100.537 68.2253 99.2038C64.9922 96.4584 60.617 95.2246 56.4088 95.3408C52.2165 95.4483 48.1646 96.8629 44.8271 99.3841C41.4841 101.996 39.1317 105.657 38.1538 109.767C37.1312 113.844 37.4643 118.14 39.1034 122.014C40.0243 124.135 41.3561 126.047 42.3838 128.115C43.3406 130.04 44.0775 132.278 43.4822 134.425C43.2204 135.383 42.7176 136.259 42.0211 136.971C41.3246 137.683 40.4572 138.207 39.5005 138.495C38.6244 138.723 37.6974 138.663 36.8589 138.323C36.0204 137.983 35.3157 137.382 34.8508 136.61C33.8882 135.103 33.8652 133.129 35.3104 131.913C35.6748 131.601 36.0993 131.366 36.558 131.222C37.0167 131.078 37.5002 131.028 37.9788 131.076C38.4575 131.123 38.9215 131.267 39.3426 131.498C39.7636 131.729 40.1329 132.043 40.4281 132.42C41.0144 133.176 41.2769 134.131 41.1585 135.078C41.0873 135.557 41.825 135.763 41.8969 135.28C42.0693 134.279 41.8781 133.249 41.3572 132.374C40.8363 131.5 40.0197 130.837 39.0527 130.505C38.0857 130.172 37.0313 130.191 36.0772 130.559C35.1231 130.926 34.3314 131.618 33.8431 132.511C32.9716 134.138 33.4418 136.1 34.5482 137.491C35.119 138.232 35.8927 138.793 36.7767 139.109C37.6606 139.425 38.6175 139.481 39.5327 139.271C41.5466 138.809 43.194 137.22 43.9688 135.352C44.8313 133.273 44.4361 130.953 43.5953 128.935C42.6864 126.755 41.3367 124.799 40.2693 122.697C39.3028 120.798 38.6878 118.742 38.4536 116.627C37.9848 112.38 38.9556 108.098 41.2126 104.461C43.5131 100.879 47.0244 98.2296 51.1157 96.9878C55.1774 95.692 59.5623 95.8071 63.5494 97.3142C67.4403 98.8364 71.1974 102.154 71.1523 106.609C71.133 108.512 70.4214 110.453 68.9533 111.722C67.1987 113.239 64.7556 113.369 62.55 113.132C60.3303 112.894 58.1748 112.25 55.9456 112.086C54.0067 111.943 51.9148 112.092 50.1836 113.048C49.3773 113.494 48.691 114.127 48.1822 114.891C47.9088 115.3 48.5717 115.681 48.8434 115.275Z" fill="#2F2E41"/>
<path d="M51.0171 148.471C51.0388 148.52 51.0633 148.568 51.0905 148.615C51.1179 148.663 51.148 148.71 51.1805 148.755L57.1546 157.293L57.618 157.956L62.4911 164.916L67.1925 171.635L69.0948 174.357C69.146 174.431 69.2035 174.501 69.2666 174.565C69.5608 174.873 69.9564 175.065 70.3813 175.107H70.4303V163.495L69.8852 162.716L63.7721 153.981L57.2065 144.599C56.9361 144.213 56.5226 143.949 56.0566 143.866C55.5907 143.782 55.1104 143.885 54.7209 144.152L52.7067 145.541L51.6247 146.287C51.2826 146.524 51.0346 146.871 50.9236 147.27C50.8126 147.669 50.8457 148.094 51.0171 148.471Z" fill="#A0616A"/>
<path d="M50.0822 148.263L50.3519 148.801L50.3547 148.804L50.4283 148.947L54.8081 157.58C55.0549 157.981 55.4519 158.269 55.9121 158.381C56.3724 158.492 56.8583 158.418 57.2638 158.175L57.5472 157.999L57.618 157.956L63.2652 154.438C63.4668 154.317 63.6422 154.157 63.7813 153.968C63.9204 153.779 64.0204 153.565 64.0756 153.338C64.1309 153.11 64.1402 152.874 64.103 152.643C64.0659 152.412 63.9831 152.191 63.8593 151.992L57.6562 143.641C57.0482 142.822 56.1749 142.237 55.1832 141.983C54.1915 141.728 53.1419 141.821 52.2108 142.245C52.0007 142.339 51.7983 142.449 51.6057 142.575C50.6939 143.173 50.0351 144.082 49.7543 145.131C49.4734 146.18 49.5901 147.294 50.0822 148.263Z" fill="#2F2E41"/>
<path d="M82.2451 176.993V197.366C82.2458 197.836 82.4341 198.287 82.7688 198.619C83.1034 198.951 83.5571 199.138 84.0304 199.139H87.7997C88.2729 199.138 88.7266 198.951 89.0612 198.619C89.3958 198.287 89.5841 197.836 89.5848 197.366V176.993H82.2451Z" fill="#A0616A"/>
<path d="M60.2753 175.783V176.316C60.2757 176.598 60.3741 176.871 60.5539 177.089C60.7337 177.307 60.9838 177.456 61.2619 177.512C61.3 177.518 61.3382 177.526 61.3764 177.529C61.4172 177.531 61.4581 177.534 61.5017 177.534H103.517C104.192 177.534 104.839 177.268 105.316 176.794C105.793 176.321 106.062 175.679 106.063 175.009V158.015C106.062 157.346 105.793 156.703 105.316 156.23C104.839 155.757 104.192 155.491 103.517 155.491H72.428C71.7538 155.491 71.1075 155.758 70.6307 156.231C70.154 156.704 69.8859 157.346 69.8851 158.015V174.565H61.5017C61.1764 174.565 60.8645 174.694 60.6345 174.922C60.4045 175.15 60.2753 175.46 60.2753 175.783Z" fill="white"/>
<path d="M60.2753 175.783V176.316C60.2757 176.598 60.3741 176.871 60.5539 177.089C60.7337 177.307 60.9838 177.456 61.2619 177.512C61.3 177.518 61.3382 177.526 61.3764 177.529C61.4172 177.531 61.4581 177.534 61.5017 177.534H103.517C104.192 177.534 104.839 177.268 105.316 176.794C105.793 176.321 106.062 175.679 106.063 175.009V158.015C106.062 157.346 105.793 156.703 105.316 156.23C104.839 155.757 104.192 155.491 103.517 155.491H72.428C71.7538 155.491 71.1075 155.758 70.6307 156.231C70.154 156.704 69.8859 157.346 69.8851 158.015V174.565H61.5017C61.1764 174.565 60.8645 174.694 60.6345 174.922C60.4045 175.15 60.2753 175.46 60.2753 175.783ZM60.8204 176.316V175.783C60.8204 175.604 60.8922 175.432 61.02 175.305C61.1478 175.178 61.321 175.107 61.5017 175.107H70.4302V158.015C70.431 157.489 70.6417 156.985 71.0162 156.614C71.3907 156.242 71.8984 156.033 72.428 156.032H103.517C104.047 156.032 104.556 156.241 104.931 156.613C105.306 156.985 105.517 157.489 105.518 158.015V175.009C105.517 175.535 105.306 176.04 104.931 176.412C104.556 176.784 104.047 176.992 103.517 176.993H61.5017C61.321 176.993 61.1478 176.921 61.02 176.794C60.8922 176.668 60.8204 176.496 60.8204 176.316Z" fill="#3F3D56"/>
<path d="M87.9737 168.593C89.1313 168.593 90.0696 167.662 90.0696 166.513C90.0696 165.363 89.1313 164.432 87.9737 164.432C86.8162 164.432 85.8778 165.363 85.8778 166.513C85.8778 167.662 86.8162 168.593 87.9737 168.593Z" fill="#EC603C"/>
<path d="M70.4385 174.852H69.8934V177.288H70.4385V174.852Z" fill="#3F3D56"/>
<path d="M291.664 10.6955H146.631C146.542 10.6955 146.457 10.6604 146.394 10.5979C146.331 10.5354 146.295 10.4506 146.295 10.3622C146.295 10.2738 146.331 10.189 146.394 10.1265C146.457 10.064 146.542 10.0289 146.631 10.0289H291.664C291.753 10.0289 291.839 10.064 291.902 10.1265C291.965 10.189 292 10.2738 292 10.3622C292 10.4506 291.965 10.5354 291.902 10.5979C291.839 10.6604 291.753 10.6955 291.664 10.6955Z" fill="#CACACA"/>
<path d="M159.383 6.02887C161.06 6.02887 162.419 4.67926 162.419 3.01444C162.419 1.34961 161.06 0 159.383 0C157.706 0 156.347 1.34961 156.347 3.01444C156.347 4.67926 157.706 6.02887 159.383 6.02887Z" fill="#3F3D56"/>
<path d="M169.871 6.02887C171.548 6.02887 172.907 4.67926 172.907 3.01444C172.907 1.34961 171.548 0 169.871 0C168.195 0 166.835 1.34961 166.835 3.01444C166.835 4.67926 168.195 6.02887 169.871 6.02887Z" fill="#3F3D56"/>
<path d="M180.36 6.02887C182.036 6.02887 183.396 4.67926 183.396 3.01444C183.396 1.34961 182.036 0 180.36 0C178.683 0 177.323 1.34961 177.323 3.01444C177.323 4.67926 178.683 6.02887 180.36 6.02887Z" fill="#3F3D56"/>
<path d="M174.273 62.0897C170.744 62.0897 167.296 61.051 164.362 59.1048C161.428 57.1587 159.142 54.3925 157.792 51.1562C156.442 47.9198 156.088 44.3586 156.777 40.9229C157.465 37.4872 159.164 34.3313 161.659 31.8543C164.153 29.3773 167.332 27.6904 170.792 27.007C174.253 26.3236 177.839 26.6743 181.099 28.0148C184.359 29.3554 187.145 31.6255 189.105 34.5381C191.065 37.4508 192.111 40.8751 192.111 44.3781C192.106 49.0739 190.225 53.5758 186.88 56.8962C183.536 60.2166 179.002 62.0844 174.273 62.0897ZM174.273 27.3333C170.877 27.3333 167.558 28.333 164.735 30.2059C161.912 32.0788 159.712 34.7408 158.412 37.8554C157.113 40.9699 156.773 44.3971 157.435 47.7034C158.098 51.0098 159.733 54.0469 162.134 56.4307C164.534 58.8145 167.593 60.4378 170.923 61.0955C174.254 61.7532 177.705 61.4156 180.842 60.1256C183.979 58.8355 186.66 56.6508 188.547 53.8477C190.433 51.0447 191.44 47.7493 191.44 44.3781C191.434 39.8591 189.624 35.5267 186.406 32.3313C183.188 29.1359 178.824 27.3385 174.273 27.3333Z" fill="#3F3D56"/>
<path d="M173.279 150.892C177.86 150.892 181.574 147.205 181.574 142.656C181.574 138.107 177.86 134.419 173.279 134.419C168.697 134.419 164.983 138.107 164.983 142.656C164.983 147.205 168.697 150.892 173.279 150.892Z" fill="#A0616A"/>
<path d="M168.671 145.709L168.662 145.401C169.239 145.385 169.747 145.349 170.129 145.072C170.238 144.989 170.327 144.884 170.39 144.763C170.454 144.643 170.491 144.511 170.498 144.375C170.505 144.292 170.492 144.209 170.461 144.131C170.43 144.054 170.382 143.985 170.32 143.929C170.175 143.843 170.01 143.796 169.841 143.794C169.672 143.793 169.506 143.837 169.36 143.921L169.104 144.038L169.596 140.469L169.903 140.511L169.485 143.547C169.656 143.483 169.84 143.464 170.021 143.49C170.202 143.516 170.373 143.586 170.52 143.694C170.618 143.78 170.695 143.887 170.746 144.007C170.796 144.126 170.817 144.256 170.808 144.386C170.799 144.568 170.75 144.746 170.664 144.908C170.579 145.069 170.458 145.21 170.312 145.32C169.821 145.677 169.183 145.694 168.671 145.709Z" fill="#2F2E41"/>
<path d="M173.091 140.772H171.422V141.08H173.091V140.772Z" fill="#2F2E41"/>
<path d="M167.821 140.772H166.152V141.08H167.821V140.772Z" fill="#2F2E41"/>
<path d="M172.03 137.337C170.029 138.701 166.955 137.949 166.048 135.645C165.826 135.084 165.728 134.483 165.758 133.882C165.789 133.28 165.947 132.692 166.224 132.156C166.556 131.595 167.007 131.113 167.547 130.744C168.086 130.375 168.701 130.127 169.347 130.019C171.063 129.666 172.838 130.14 174.407 130.829C174.463 130.859 174.527 130.87 174.591 130.862C174.654 130.854 174.713 130.827 174.76 130.784C176.259 129.598 178.436 130.113 179.972 130.942C181.634 131.868 183.039 133.188 184.063 134.784C185.107 136.366 185.759 138.172 185.967 140.052C186.157 142.084 185.822 144.131 184.996 145.999C184.169 147.868 182.876 149.496 181.24 150.732C180.943 150.953 181.234 151.457 181.535 151.233C183.187 150.021 184.513 148.424 185.396 146.582C186.279 144.741 186.692 142.712 186.598 140.675C186.504 138.638 185.906 136.655 184.857 134.901C183.808 133.148 182.34 131.678 180.584 130.621C178.741 129.521 176.172 128.929 174.347 130.374L174.701 130.329C173.132 129.64 171.413 129.153 169.684 129.379C168.215 129.571 166.772 130.27 165.93 131.516C165.56 132.088 165.317 132.731 165.218 133.403C165.119 134.076 165.166 134.761 165.355 135.414C165.539 136.059 165.872 136.653 166.328 137.149C166.783 137.645 167.348 138.029 167.978 138.271C168.685 138.551 169.448 138.657 170.205 138.582C170.962 138.507 171.689 138.251 172.325 137.837C172.633 137.628 172.341 137.125 172.03 137.337Z" fill="#2F2E41"/>
<path d="M173.859 55.1724C178.381 55.1724 182.047 51.5324 182.047 47.0422C182.047 42.552 178.381 38.9119 173.859 38.9119C169.336 38.9119 165.67 42.552 165.67 47.0422C165.67 51.5324 169.336 55.1724 173.859 55.1724Z" fill="#A0616A"/>
<path d="M171.926 50.4551C171.395 50.4405 170.735 50.4222 170.226 50.053C170.074 49.9386 169.95 49.7927 169.861 49.6255C169.772 49.4582 169.721 49.2738 169.712 49.085C169.703 48.9508 169.725 48.8163 169.777 48.692C169.829 48.5678 169.909 48.4571 170.011 48.3687C170.162 48.2563 170.34 48.1834 170.527 48.1566C170.714 48.1299 170.906 48.1501 171.083 48.2154L170.65 45.0708L170.968 45.0275L171.477 48.7244L171.212 48.6034C171.06 48.516 170.888 48.4707 170.714 48.4722C170.539 48.4738 170.367 48.5221 170.218 48.6121C170.153 48.6698 170.103 48.7414 170.071 48.8215C170.039 48.9015 170.026 48.9879 170.033 49.0737C170.041 49.2143 170.079 49.3515 170.145 49.476C170.211 49.6006 170.303 49.7096 170.415 49.7956C170.811 50.0828 171.338 50.1198 171.935 50.1364L171.926 50.4551Z" fill="#2F2E41"/>
<path d="M169.076 45.342H167.347V45.6608H169.076V45.342Z" fill="#2F2E41"/>
<path d="M174.535 45.342H172.806V45.6608H174.535V45.342Z" fill="#2F2E41"/>
<path d="M174.619 41.0322C173.624 42.324 172.044 43.1906 170.375 42.9854C169.601 42.9064 168.871 42.5863 168.291 42.0707C167.711 41.5552 167.31 40.8706 167.145 40.1151C167.001 39.3705 167.04 38.6025 167.258 37.8758C167.476 37.1492 167.867 36.4852 168.397 35.9399C169.522 34.7649 171.132 34.1328 172.726 33.9161C174.233 33.7401 175.761 33.882 177.209 34.3326C178.657 34.7832 179.993 35.5323 181.129 36.5309C182.276 37.51 183.191 38.7279 183.809 40.0979C184.405 41.4578 184.689 42.9323 184.64 44.4145C184.601 45.8887 184.26 47.3397 183.64 48.6796C183.019 50.0195 182.132 51.2206 181.03 52.2101C180.753 52.4506 180.464 52.6761 180.162 52.8854C179.908 53.0625 179.667 52.648 179.919 52.4724C181.041 51.6586 181.986 50.6282 182.698 49.4429C183.409 48.2576 183.872 46.942 184.059 45.5747C184.268 44.2046 184.175 42.8057 183.785 41.475C183.395 40.1443 182.719 38.9137 181.802 37.8686C180.877 36.8209 179.751 35.9669 178.489 35.3564C177.227 34.7458 175.856 34.391 174.455 34.3127C171.637 34.1907 168.116 35.4397 167.589 38.5538C167.352 39.9497 167.878 41.4168 169.166 42.1157C169.848 42.4564 170.617 42.5883 171.374 42.4946C172.132 42.401 172.845 42.086 173.422 41.5897C173.712 41.354 173.974 41.0859 174.203 40.7908C174.388 40.5496 174.807 40.7876 174.619 41.0322Z" fill="#2F2E41"/>
<path d="M174.273 108.811C170.744 108.811 167.296 107.773 164.362 105.826C161.428 103.88 159.142 101.114 157.792 97.8778C156.442 94.6415 156.088 91.0803 156.777 87.6446C157.465 84.2089 159.164 81.053 161.659 78.576C164.153 76.099 167.332 74.4121 170.792 73.7287C174.253 73.0453 177.839 73.396 181.099 74.7365C184.359 76.077 187.145 78.3472 189.105 81.2598C191.065 84.1724 192.111 87.5968 192.111 91.0998C192.106 95.7955 190.225 100.297 186.88 103.618C183.536 106.938 179.002 108.806 174.273 108.811ZM174.273 74.055C170.877 74.055 167.558 75.0547 164.735 76.9276C161.912 78.8005 159.712 81.4625 158.412 84.577C157.113 87.6916 156.773 91.1187 157.435 94.4251C158.098 97.7315 159.733 100.769 162.134 103.152C164.534 105.536 167.593 107.16 170.923 107.817C174.254 108.475 177.705 108.137 180.842 106.847C183.979 105.557 186.66 103.372 188.547 100.569C190.433 97.7664 191.44 94.4709 191.44 91.0998C191.435 86.5808 189.624 82.2484 186.406 79.053C183.188 75.8576 178.824 74.0602 174.273 74.055Z" fill="#3F3D56"/>
<path d="M174.273 158.667C170.744 158.667 167.296 157.628 164.362 155.682C161.428 153.736 159.142 150.969 157.792 147.733C156.442 144.497 156.088 140.936 156.777 137.5C157.465 134.064 159.164 130.908 161.659 128.431C164.154 125.954 167.332 124.267 170.792 123.584C174.253 122.901 177.84 123.251 181.099 124.592C184.359 125.932 187.145 128.203 189.105 131.115C191.065 134.028 192.111 137.452 192.111 140.955C192.106 145.651 190.225 150.153 186.88 153.473C183.536 156.794 179.002 158.661 174.273 158.667ZM174.273 123.91C170.877 123.91 167.558 124.91 164.735 126.783C161.912 128.656 159.712 131.318 158.412 134.432C157.113 137.547 156.773 140.974 157.435 144.28C158.098 147.587 159.733 150.624 162.134 153.008C164.534 155.391 167.593 157.015 170.923 157.672C174.253 158.33 177.705 157.993 180.842 156.703C183.979 155.413 186.66 153.228 188.546 150.425C190.433 147.622 191.44 144.326 191.44 140.955C191.435 136.436 189.624 132.104 186.406 128.908C183.188 125.713 178.824 123.915 174.273 123.91Z" fill="#3F3D56"/>
<path d="M173.058 101.204C177.737 101.204 181.53 97.4378 181.53 92.7924C181.53 88.147 177.737 84.3811 173.058 84.3811C168.38 84.3811 164.587 88.147 164.587 92.7924C164.587 97.4378 168.38 101.204 173.058 101.204Z" fill="#A0616A"/>
<path d="M170.239 96.3233C169.69 96.3082 169.006 96.2893 168.48 95.9074C168.323 95.789 168.194 95.638 168.103 95.465C168.011 95.292 167.958 95.1012 167.948 94.9058C167.939 94.767 167.962 94.6279 168.015 94.4993C168.069 94.3708 168.152 94.2563 168.257 94.1648C168.414 94.0485 168.598 93.9731 168.792 93.9454C168.986 93.9177 169.183 93.9386 169.367 94.0062L168.918 90.7529L169.248 90.7082L169.775 94.5328L169.5 94.4076C169.343 94.3172 169.165 94.2703 168.985 94.2719C168.804 94.2735 168.627 94.3235 168.472 94.4167C168.405 94.4763 168.353 94.5504 168.32 94.6333C168.287 94.7161 168.273 94.8054 168.28 94.8942C168.288 95.0396 168.328 95.1816 168.396 95.3104C168.464 95.4393 168.56 95.552 168.676 95.641C169.086 95.9382 169.63 95.9765 170.248 95.9937L170.239 96.3233Z" fill="#2F2E41"/>
<path d="M167.291 91.0335H165.501V91.3633H167.291V91.0335Z" fill="#2F2E41"/>
<path d="M172.938 91.0335H171.149V91.3633H172.938V91.0335Z" fill="#2F2E41"/>
<path d="M173.485 101.466L179.345 99.208C180.303 98.8388 181.266 98.4807 182.219 98.0988C182.628 97.9575 183.004 97.7374 183.326 97.4512C183.606 97.1564 183.798 96.789 183.878 96.3912C184.037 95.5155 184.088 94.6236 184.03 93.7355C184.018 92.7834 183.939 91.8332 183.793 90.8921C183.537 89.1235 182.937 87.4216 182.024 85.8815C180.381 83.2045 177.55 81.1904 174.293 81.3511C172.763 81.4039 171.298 81.9817 170.149 82.9862C170.032 83.1249 169.901 83.251 169.757 83.3627C169.658 83.3997 169.55 83.4069 169.446 83.3834C169.309 83.3747 169.172 83.368 169.035 83.3634C168.56 83.3435 168.084 83.3633 167.613 83.4227C166.753 83.5149 165.938 83.8508 165.265 84.3904C164.971 84.6228 164.726 84.9105 164.544 85.2371C164.361 85.5636 164.246 85.9226 164.203 86.2936C164.181 86.6379 164.238 86.9829 164.371 87.3017C164.504 87.6206 164.709 87.9048 164.97 88.1326C165.669 88.7176 166.666 88.512 167.505 88.4679L170.577 88.3063L172.133 88.2244C172.454 88.2076 172.453 88.7024 172.133 88.7192L167.996 88.9368C167.327 89.0011 166.654 89.0281 165.981 89.0179C165.47 88.9949 164.982 88.7999 164.597 88.465C164.245 88.1444 163.983 87.7389 163.837 87.288C163.69 86.837 163.664 86.3561 163.76 85.892C163.888 85.3931 164.119 84.9264 164.44 84.5219C164.761 84.1175 165.163 83.7844 165.622 83.5442C166.832 82.8664 168.277 82.8014 169.632 82.9016L169.455 82.9741C170.987 81.3416 173.334 80.6524 175.537 80.8936C177.863 81.1482 179.931 82.4366 181.418 84.1983C183.075 86.1625 183.978 88.6117 184.329 91.1302C184.512 92.4899 184.572 93.8631 184.509 95.2335C184.511 95.8379 184.407 96.438 184.201 97.0066C183.966 97.5601 183.541 98.0127 183.001 98.2842C182.382 98.5808 181.746 98.8402 181.096 99.0611L178.937 99.8931L174.697 101.527L173.617 101.943C173.318 102.059 173.189 101.58 173.485 101.466Z" fill="#2F2E41"/>
<path d="M180.124 82.0958C180.124 81.5902 180.275 81.0959 180.557 80.6756C180.84 80.2552 181.242 79.9275 181.713 79.734C182.183 79.5405 182.701 79.4899 183.201 79.5886C183.7 79.6872 184.159 79.9307 184.519 80.2882C184.879 80.6457 185.124 81.1012 185.223 81.5971C185.323 82.093 185.272 82.607 185.077 83.0741C184.882 83.5412 184.552 83.9404 184.129 84.2213C183.705 84.5022 183.207 84.6522 182.698 84.6522C182.016 84.6514 181.361 84.3818 180.879 83.9026C180.396 83.4233 180.124 82.7736 180.124 82.0958ZM180.622 82.0958C180.622 82.5035 180.744 82.9021 180.972 83.2412C181.2 83.5802 181.524 83.8444 181.904 84.0005C182.283 84.1565 182.701 84.1973 183.103 84.1178C183.506 84.0382 183.876 83.8419 184.166 83.5536C184.457 83.2652 184.655 82.8979 184.735 82.498C184.815 82.0981 184.774 81.6836 184.617 81.3069C184.459 80.9302 184.193 80.6082 183.852 80.3817C183.51 80.1551 183.109 80.0342 182.698 80.0342C182.148 80.0348 181.62 80.2522 181.231 80.6387C180.841 81.0252 180.622 81.5492 180.622 82.0958Z" fill="#2F2E41"/>
<path d="M278.764 51.8125H220.138C219.405 51.8125 218.703 51.5236 218.185 51.0094C217.667 50.4953 217.376 49.7979 217.376 49.0707C217.376 48.3436 217.667 47.6462 218.185 47.132C218.703 46.6179 219.405 46.329 220.138 46.329H278.764C279.127 46.329 279.486 46.3999 279.821 46.5377C280.156 46.6755 280.461 46.8774 280.717 47.132C280.973 47.3866 281.177 47.6889 281.316 48.0215C281.454 48.3542 281.526 48.7107 281.526 49.0707C281.526 49.4308 281.454 49.7873 281.316 50.1199C281.177 50.4526 280.973 50.7548 280.717 51.0094C280.461 51.264 280.156 51.466 279.821 51.6038C279.486 51.7415 279.127 51.8125 278.764 51.8125Z" fill="#3F3D56"/>
<path d="M259.859 42.4273H220.138C219.405 42.4273 218.703 42.1385 218.185 41.6243C217.667 41.1101 217.376 40.4128 217.376 39.6856C217.376 38.9585 217.667 38.2611 218.185 37.7469C218.703 37.2327 219.405 36.9439 220.138 36.9439H259.859C260.222 36.9439 260.581 37.0148 260.916 37.1526C261.251 37.2904 261.556 37.4923 261.812 37.7469C262.068 38.0015 262.272 38.3038 262.411 38.6364C262.549 38.969 262.621 39.3256 262.621 39.6856C262.621 40.0457 262.549 40.4022 262.411 40.7348C262.272 41.0675 262.068 41.3697 261.812 41.6243C261.556 41.8789 261.251 42.0808 260.916 42.2186C260.581 42.3564 260.222 42.4273 259.859 42.4273Z" fill="#3F3D56"/>
<path d="M278.764 98.5341H220.138C219.405 98.5341 218.703 98.2452 218.185 97.731C217.667 97.2169 217.376 96.5195 217.376 95.7924C217.376 95.0652 217.667 94.3678 218.185 93.8537C218.703 93.3395 219.405 93.0506 220.138 93.0506H278.764C279.497 93.0506 280.199 93.3395 280.717 93.8537C281.235 94.3678 281.526 95.0652 281.526 95.7924C281.526 96.5195 281.235 97.2169 280.717 97.731C280.199 98.2452 279.497 98.5341 278.764 98.5341Z" fill="#3F3D56"/>
<path d="M259.859 89.1489H220.138C219.406 89.1481 218.704 88.8589 218.187 88.3448C217.67 87.8308 217.379 87.1339 217.379 86.4072C217.379 85.6806 217.67 84.9837 218.187 84.4696C218.704 83.9555 219.406 83.6663 220.138 83.6655H259.859C260.592 83.6655 261.294 83.9544 261.812 84.4685C262.33 84.9827 262.621 85.6801 262.621 86.4072C262.621 87.1344 262.33 87.8317 261.812 88.3459C261.294 88.8601 260.592 89.1489 259.859 89.1489Z" fill="#3F3D56"/>
<path d="M278.764 148.389H220.138C219.405 148.389 218.703 148.101 218.185 147.586C217.667 147.072 217.376 146.375 217.376 145.648C217.376 144.921 217.667 144.223 218.185 143.709C218.703 143.195 219.405 142.906 220.138 142.906H278.764C279.497 142.906 280.199 143.195 280.717 143.709C281.235 144.223 281.526 144.921 281.526 145.648C281.526 146.375 281.235 147.072 280.717 147.586C280.199 148.101 279.497 148.389 278.764 148.389Z" fill="#3F3D56"/>
<path d="M259.859 139.004H220.138C219.405 139.004 218.703 138.715 218.185 138.201C217.667 137.687 217.376 136.99 217.376 136.263C217.376 135.535 217.667 134.838 218.185 134.324C218.703 133.81 219.405 133.521 220.138 133.521H259.859C260.592 133.521 261.294 133.81 261.812 134.324C262.33 134.838 262.621 135.535 262.621 136.263C262.621 136.99 262.33 137.687 261.812 138.201C261.294 138.715 260.592 139.004 259.859 139.004Z" fill="#3F3D56"/>
<path d="M128.247 209H0.335725C0.246685 209 0.161292 208.965 0.0983313 208.902C0.0353707 208.84 0 208.755 0 208.667C0 208.578 0.0353707 208.493 0.0983313 208.431C0.161292 208.368 0.246685 208.333 0.335725 208.333H128.247C128.336 208.333 128.421 208.368 128.484 208.431C128.547 208.493 128.583 208.578 128.583 208.667C128.583 208.755 128.547 208.84 128.484 208.902C128.421 208.965 128.336 209 128.247 209Z" fill="#3F3D56"/>
</g>
<defs>
<clipPath id="clip0_67_953">
<rect width="292" height="209" fill="white"/>
</clipPath>
</defs>
</svg>
