<svg width="19" height="19" viewBox="0 0 19 19" fill="none" xmlns="http://www.w3.org/2000/svg">
<path d="M11.5497 17.5435H7.44241V11.5637C7.44241 11.1476 7.68916 10.8762 8.05531 10.8762H10.9447C11.3109 10.8762 11.5497 11.1476 11.5497 11.5637V17.5435ZM2.48346 17.0007C2.48346 18.2582 3.15208 19 4.27441 19H14.7415C15.8639 19 16.5245 18.2582 16.5245 17.0007V9.83585L9.98159 3.60278C9.67912 3.31329 9.32089 3.32234 9.0264 3.60278L2.48346 9.83585V17.0007ZM0 8.93118C0 9.30208 0.254714 9.65493 0.684543 9.65493C0.907416 9.65493 1.09049 9.51922 1.25765 9.36545L9.22544 1.76634C9.40052 1.58541 9.61546 1.58541 9.79054 1.76634L17.7583 9.36545C17.9175 9.51922 18.1006 9.65493 18.3235 9.65493C18.6976 9.65493 19 9.39259 19 8.95832C19 8.68692 18.9204 8.50599 18.7533 8.34316L10.4671 0.427449C9.87808 -0.142483 9.14581 -0.142483 8.54884 0.427449L0.254714 8.34316C0.0795979 8.50599 0 8.72311 0 8.93118ZM14.5267 4.8512L16.5245 6.76906V2.58957C16.5245 2.19152 16.3017 1.93822 15.9514 1.93822H15.0997C14.7575 1.93822 14.5267 2.19152 14.5267 2.58957V4.8512Z" fill="#3B2A37"/>
</svg>
