<svg width="19" height="19" viewBox="0 0 19 19" fill="none" xmlns="http://www.w3.org/2000/svg">
<path d="M8.66362 19H10.3363C10.809 19 11.1545 18.7181 11.2545 18.2545L11.7273 16.2545C12.0818 16.1363 12.4272 16 12.7273 15.8545L14.4817 16.9272C14.8727 17.1727 15.3182 17.1363 15.6454 16.809L16.8181 15.6454C17.1454 15.3182 17.1909 14.8455 16.9272 14.4545L15.8545 12.7181C16.0091 12.4 16.1455 12.0727 16.2454 11.7454L18.2636 11.2636C18.7272 11.1636 19 10.8182 19 10.3454V8.69998C19 8.23635 18.7272 7.89089 18.2636 7.79089L16.2636 7.30907C16.1455 6.93635 16 6.59998 15.8727 6.31817L16.9454 4.55454C17.2 4.16363 17.1727 3.71817 16.8363 3.3909L15.6454 2.21817C15.309 1.90909 14.909 1.85454 14.509 2.08182L12.7273 3.18181C12.4364 3.02726 12.0999 2.8909 11.7273 2.77273L11.2545 0.745453C11.1545 0.281817 10.809 0 10.3363 0H8.66362C8.19089 0 7.84543 0.281817 7.73635 0.745453L7.26362 2.75454C6.90908 2.87272 6.56362 3.00908 6.25453 3.17272L4.4909 2.08182C4.0909 1.85454 3.68181 1.9 3.34545 2.21817L2.16363 3.3909C1.82727 3.71817 1.79091 4.16363 2.05454 4.55454L3.11818 6.31817C3 6.59998 2.85454 6.93635 2.73635 7.30907L0.736362 7.79089C0.272727 7.89089 0 8.23635 0 8.69998V10.3454C0 10.8182 0.272727 11.1636 0.736362 11.2636L2.75454 11.7454C2.85454 12.0727 2.9909 12.4 3.13636 12.7181L2.07272 14.4545C1.79999 14.8455 1.85454 15.3182 2.18181 15.6454L3.34545 16.809C3.67272 17.1363 4.12726 17.1727 4.51818 16.9272L6.26363 15.8545C6.57272 16 6.90908 16.1363 7.26362 16.2545L7.73635 18.2545C7.84543 18.7181 8.19089 19 8.66362 19ZM9.5 12.709C7.73635 12.709 6.29089 11.2545 6.29089 9.49088C6.29089 7.73635 7.73635 6.29089 9.5 6.29089C11.2636 6.29089 12.709 7.73635 12.709 9.49088C12.709 11.2545 11.2636 12.709 9.5 12.709Z" fill="#B1B1B1" fill-opacity="0.85"/>
</svg>
